<?xml version="1.0" encoding="UTF-8" standalone="no"?>
<!-- Created with Inkscape (http://www.inkscape.org/) -->
<svg xmlns:dc="http://purl.org/dc/elements/1.1/" xmlns:cc="http://web.resource.org/cc/" xmlns:rdf="http://www.w3.org/1999/02/22-rdf-syntax-ns#" xmlns:svg="http://www.w3.org/2000/svg" xmlns="http://www.w3.org/2000/svg" xmlns:sodipodi="http://sodipodi.sourceforge.net/DTD/sodipodi-0.dtd" xmlns:inkscape="http://www.inkscape.org/namespaces/inkscape" id="svg2" sodipodi:version="0.32" inkscape:version="0.45" width="272" height="286" version="1.0" sodipodi:docbase="/home/rugby471/Desktop" sodipodi:docname="Knoppix-logo.svg" inkscape:output_extension="org.inkscape.output.svg.inkscape" sodipodi:modified="true">
  <metadata id="metadata7">
    <rdf:RDF>
      <cc:Work rdf:about="">
        <dc:format>image/svg+xml</dc:format>
        <dc:type rdf:resource="http://purl.org/dc/dcmitype/StillImage"/>
      </cc:Work>
    </rdf:RDF>
  </metadata>
  <defs id="defs5"/>
  <sodipodi:namedview inkscape:window-height="712" inkscape:window-width="1024" inkscape:pageshadow="2" inkscape:pageopacity="0.0" guidetolerance="10.0" gridtolerance="10.0" objecttolerance="10.0" borderopacity="1.0" bordercolor="#666666" pagecolor="#ffffff" id="base" inkscape:zoom="1.0062673" inkscape:cx="149.23522" inkscape:cy="216.73943" inkscape:window-x="0" inkscape:window-y="0" inkscape:current-layer="layer2"/>
  <g inkscape:groupmode="layer" id="layer1" inkscape:label="image"/>
  <g inkscape:groupmode="layer" id="layer2" inkscape:label="stuff">
    <g id="g10010">
      <path id="path7080" d="M 273.7841,131.71695 C 273.7841,196.03584 218.5781,248.23668 150.55641,248.23668 C 82.534726,248.23668 27.32872,196.03584 27.32872,131.71695 C 27.32872,67.398059 82.534726,15.19722 150.55641,15.19722 C 218.5781,15.19722 273.7841,67.398059 273.7841,131.71695 z " style="fill:#e7e7fe;fill-opacity:1;stroke:#000000;stroke-width:0.98844904;stroke-miterlimit:4;stroke-dashoffset:0;stroke-opacity:1" transform="matrix(0.9857913,0,0,1.0340139,0.4000923,-2.9895567)"/>
      <path id="path9020" d="M 273.7841,131.71695 C 273.7841,196.03584 218.5781,248.23668 150.55641,248.23668 C 82.534726,248.23668 27.32872,196.03584 27.32872,131.71695 C 27.32872,67.398059 82.534726,15.19722 150.55641,15.19722 C 218.5781,15.19722 273.7841,67.398059 273.7841,131.71695 z " style="fill:none;fill-opacity:1;stroke:#000000;stroke-width:0.98844904;stroke-miterlimit:4;stroke-dasharray:3.95379611, 3.95379611;stroke-dashoffset:0;stroke-opacity:1" transform="matrix(0.9657045,0,0,1.0170351,3.9216417,-13.920638)"/>
      <path id="path14891" d="M 193.04691,210.59776 C 193.66802,213.82752 196.27667,215.19396 196.27667,215.19396 C 209.56837,215.56662 220.12719,213.08219 220.12719,213.08219 C 220.12719,213.08219 223.23273,214.57284 216.52477,218.42371 L 209.1957,218.42371 C 209.1957,218.42371 207.82927,221.7777 203.60574,224.51057 L 196.89778,224.51057 L 194.41335,226.995 L 194.53081,227.11903 L 186.45641,227.98858 L 180.12112,217.18131 L 193.04691,210.59776 z " style="fill:#bdbf00;fill-opacity:1;fill-rule:evenodd;stroke:#000000;stroke-width:0.82499999;stroke-linecap:butt;stroke-linejoin:miter;stroke-miterlimit:4;stroke-opacity:1"/>
      <path id="path13918" d="M 168.55988,217.92678 C 168.55988,217.92678 171.41697,218.92055 171.29275,220.65965 C 171.29275,220.65965 170.92009,224.3863 165.82701,227.11917 C 165.82701,227.11917 157.37994,231.21847 157.00728,232.58491 C 157.00728,232.58491 155.76507,236.18734 160.36126,235.56623 C 160.36126,235.56623 165.82701,233.45446 167.69033,233.45446 C 167.69033,233.45446 170.92009,235.93889 175.51628,235.81467 C 175.51628,235.81467 179.61559,232.95758 181.10625,233.33024 C 181.10625,233.33024 185.20555,235.93889 187.44154,235.56623 C 187.44154,235.56623 192.90728,233.0818 193.65261,233.20602 C 193.65261,233.20602 197.87614,236.56 201.23012,236.56 L 205.08098,236.43578 C 208.80763,235.81467 207.31697,232.70913 207.31697,232.70913 L 185.82666,219.54166 C 184.08756,218.051 185.08133,216.06346 185.08133,216.06346 C 189.30486,214.5728 193.15573,211.0946 193.15573,211.0946 C 193.40417,209.60394 193.11181,207.3742 193.11181,207.3742" style="fill:#e7c100;fill-opacity:1;fill-rule:evenodd;stroke:#000000;stroke-width:0.82499999;stroke-linecap:butt;stroke-linejoin:miter;stroke-miterlimit:4;stroke-opacity:1"/>
      <path id="path13920" d="M 106.08513,210.59757 C 105.46402,213.82733 102.85537,215.19377 102.85537,215.19377 C 89.563674,215.56643 79.00485,213.082 79.00485,213.082 C 79.00485,213.082 75.899313,214.57265 82.607272,218.42352 L 89.936338,218.42352 C 89.936338,218.42352 91.302774,221.77751 95.526304,224.51038 L 102.23426,224.51038 L 104.71869,226.99481 L 104.71869,227.24325 L 110.43288,225.50415 L 117.01662,220.16263 L 114.90485,213.82733 L 106.08513,210.59757 z " style="fill:#bdbf00;fill-opacity:1;fill-rule:evenodd;stroke:#000000;stroke-width:0.82499999;stroke-linecap:butt;stroke-linejoin:miter;stroke-miterlimit:4;stroke-opacity:1"/>
      <path id="path12947" d="M 130.18409,217.92664 C 130.18409,217.92664 127.327,218.92041 127.45122,220.65951 C 127.45122,220.65951 127.82388,224.38616 132.91696,227.11903 C 132.91696,227.11903 141.36403,231.21833 141.73669,232.58477 C 141.73669,232.58477 142.9789,236.1872 138.38271,235.56609 C 138.38271,235.56609 132.91696,233.45432 131.05364,233.45432 C 131.05364,233.45432 127.82388,235.93875 123.22769,235.81453 C 123.22769,235.81453 119.12838,232.95744 117.63772,233.3301 C 117.63772,233.3301 113.53842,235.93875 111.30243,235.56609 C 111.30243,235.56609 105.83669,233.08166 105.09136,233.20588 C 105.09136,233.20588 100.86783,236.55986 97.513847,236.55986 L 93.662982,236.43564 C 89.936338,235.81453 91.426996,232.70899 91.426996,232.70899 L 112.91731,219.54152 C 114.65641,218.05086 113.66264,216.06332 113.66264,216.06332 C 109.43911,214.57266 105.58824,211.09446 105.58824,211.09446 C 105.3398,209.6038 105.65035,207.55414 105.65035,207.55414" style="fill:#e7c100;fill-opacity:1;fill-rule:evenodd;stroke:#000000;stroke-width:0.82499999;stroke-linecap:butt;stroke-linejoin:miter;stroke-miterlimit:4;stroke-opacity:1"/>
      <path id="path2172" d="M 189.6855,116.06547 C 200.86543,116.06547 218.50488,99.17135 218.50488,99.17135 C 233.41145,86.00388 243.59761,79.54436 243.59761,79.54436 C 249.80869,75.81772 249.56024,83.76789 249.56024,83.76789 L 248.56647,88.98519 L 231.67235,120.289 L 232.59459,120.86486 L 231.18919,128.59459 L 215.72973,131.40541 L 196.75676,131.40541 L 189.6855,116.06547 z " style="fill:#979996;fill-opacity:1;fill-rule:evenodd;stroke:#000000;stroke-width:1px;stroke-linecap:butt;stroke-linejoin:miter;stroke-opacity:1"/>
      <path id="path2170" d="M 109.06644,116.06504 C 97.886508,116.06504 80.247064,99.170922 80.247064,99.170922 C 65.340489,86.003447 55.154329,79.543931 55.154329,79.543931 C 48.943256,75.817287 49.191699,83.76746 49.191699,83.76746 L 50.185471,88.984762 L 67.079589,120.28857 L 85.027027,134.21622 L 102.59459,125.08108 L 109.62162,120.86486 L 109.06644,116.06504 z " style="fill:#979996;fill-opacity:1;fill-rule:evenodd;stroke:#000000;stroke-width:1px;stroke-linecap:butt;stroke-linejoin:miter;stroke-opacity:1"/>
      <path id="path2161" d="M 149.0625,35.5625 C 149.0625,35.5625 124.23132,35.571299 121.25,61.90625 L 121.25,83.15625 C 121.26889,100.7848 114.24977,116.10239 97.6875,123.8125 L 94.15625,123.78125 C 92.665594,123.53281 92.928158,121.03125 91.4375,121.03125 L 34.78125,121.03125 C 34.905471,121.65236 29.5625,121.53125 29.5625,121.53125 C 29.562499,121.53125 28.444507,123.14135 29.5625,125.75 C 29.562499,125.75 36.038493,135.68417 62.125,145.125 C 62.125002,145.125 86.195177,154.95508 92.40625,172.71875 C 96.992714,183.37901 98.581996,199.43896 103.09375,205.03125 C 103.10163,205.03604 103.11572,205.08748 103.125,205.09375 C 110.46346,212.45706 120.53609,215.83919 130.53125,217.6875 C 130.53125,217.6875 140.91551,217.66251 149.0625,215.40625 C 157.20949,217.66251 167.59375,217.6875 167.59375,217.6875 C 177.58891,215.83919 187.66154,212.45706 195,205.09375 C 195.00928,205.08748 195.02337,205.03604 195.03125,205.03125 C 199.543,199.43896 201.13228,183.37901 205.71875,172.71875 C 211.92982,154.95508 235.99999,145.125 236,145.125 C 262.0865,135.68417 268.5625,125.75 268.5625,125.75 C 269.68048,123.14135 268.5625,121.53125 268.5625,121.53125 C 268.56249,121.53125 263.21953,121.65236 263.34375,121.03125 L 206.6875,121.03125 C 205.19684,121.03125 205.4594,123.53281 203.96875,123.78125 L 200.4375,123.8125 C 183.87523,116.10239 176.85611,100.7848 176.875,83.15625 L 176.875,61.90625 C 173.89368,35.571298 149.0625,35.5625 149.0625,35.5625 z " style="fill:#8b8d8a;fill-opacity:1;fill-rule:evenodd;stroke:#000000;stroke-width:1px;stroke-linecap:butt;stroke-linejoin:miter;stroke-opacity:1"/>
      <path id="path2197" d="M 108.21622,127.54054 C 108.21622,127.54054 97.851352,144.75676 96.621622,160.91892 L 96.621622,178.48649 C 96.621622,178.48649 97.851351,191.13513 100.13514,199.04054" style="fill:none;fill-rule:evenodd;stroke:#000000;stroke-width:1px;stroke-linecap:butt;stroke-linejoin:miter;stroke-opacity:1"/>
      <path id="path2199" d="M 190.43243,127.54032 C 190.43243,127.54032 200.7973,144.75654 202.02703,160.9187 L 202.02703,178.48627 C 202.29054,179.62816 200.27028,191.13491 197.98649,199.04032" style="fill:none;fill-rule:evenodd;stroke:#000000;stroke-width:1px;stroke-linecap:butt;stroke-linejoin:miter;stroke-opacity:1"/>
      <path id="path2201" d="M 130.34375,83.261824 L 130.34375,91.886824 C 130.34375,91.886824 122.28041,114.02871 120.875,122.63682 L 120.875,127.88682 C 120.875,127.88682 110.84628,142.12753 108.5625,159.16807 L 108.5625,181.82432 C 110.46387,198.9764 125.09077,204.75684 140.375,208.35557 L 149.57264,208.35557 L 158.1875,208.35557 C 173.47173,204.75684 188.09863,198.9764 190,181.82432 L 190,159.16807 C 187.71622,142.12753 177.6875,127.88682 177.6875,127.88682 L 177.6875,122.63682 C 176.28209,114.02871 168.21875,91.886823 168.21875,91.886824 L 168.21875,83.261824 L 130.34375,83.261824 z " style="fill:#f1f3f0;fill-opacity:1;fill-rule:evenodd;stroke:#000000;stroke-width:1px;stroke-linecap:butt;stroke-linejoin:miter;stroke-opacity:1"/>
      <path id="path3184" d="M 149.41217,70.446379 L 149.41217,62.365298 C 151.3446,54.811244 158.5473,54.284217 158.5473,54.284217 C 158.5473,54.284217 166.27703,54.284216 168.20946,63.595027 L 168.20946,71.676108 C 168.20946,71.676108 167.33109,75.189622 165.57433,76.068 L 156.87838,79.756756 L 148.27027,73.081081 L 149.41217,70.446379 z " style="fill:#ffffff;fill-opacity:1;fill-rule:evenodd;stroke:#000000;stroke-width:0.6;stroke-linecap:butt;stroke-linejoin:miter;stroke-opacity:1;stroke-miterlimit:4;stroke-dasharray:none"/>
      <path id="path3182" d="M 149.32432,70.445946 L 149.32432,62.364865 C 147.39189,54.810811 140.18919,54.283784 140.18919,54.283784 C 140.18919,54.283784 132.45946,54.283783 130.52703,63.594594 L 130.52703,71.675675 C 130.52703,71.675675 131.4054,75.189189 133.16216,76.067567 L 138.95946,79.229729 L 149.32432,73.783783 L 149.32432,70.445946 z " style="fill:#ffffff;fill-opacity:1;fill-rule:evenodd;stroke:#000000;stroke-width:0.6;stroke-linecap:butt;stroke-linejoin:miter;stroke-opacity:1;stroke-miterlimit:4;stroke-dasharray:none"/>
      <path id="path3186" d="M 145.29262,71.294183 C 146.9696,70.610965 146.0894,66.653848 145.98649,65 C 144.82275,60.345034 140.01351,60.256757 140.01351,60.256757 C 140.01351,60.256757 133.86486,61.135135 134.39189,66.932432 C 134.53257,66.978638 133.24317,72.237443 136.14865,76.067567" style="fill:#000000;fill-opacity:1;fill-rule:evenodd;stroke:#000000;stroke-width:1px;stroke-linecap:butt;stroke-linejoin:miter;stroke-opacity:1"/>
      <path id="path2205" d="M 146.34375,70.625 C 146.34375,70.625001 139.48226,73.080236 135.96875,76.59375 C 113.85272,75.545481 141.00259,90.384181 147.03125,92.75 L 151.28125,92.75 C 157.30991,90.384181 184.49102,75.545488 162.375,76.59375 C 158.86149,73.080236 152,70.625 152,70.625 L 146.34375,70.625 z " style="fill:#ed9e75;fill-opacity:1;fill-rule:evenodd;stroke:#000000;stroke-width:1px;stroke-linecap:butt;stroke-linejoin:miter;stroke-opacity:1"/>
      <path id="path5138" d="M 152.09879,71.977053 C 151.5685,72.387874 151.42986,73.09787 151.78933,73.561872 C 152.14881,74.02588 152.87092,74.069035 153.40121,73.658214 C 153.9315,73.247392 154.07014,72.537396 153.71067,72.073388 C 153.3512,71.609386 152.62908,71.566232 152.09879,71.977053 z " style="opacity:0.6350711;fill:#000000;fill-opacity:1;stroke:none;stroke-width:1;stroke-miterlimit:4;stroke-opacity:1"/>
      <path id="path4159" d="M 130.34375,79.9375 C 130.34375,79.937498 137.91985,86.89186 148.9375,87.21875 C 157.94183,86.610433 162.17905,83.682211 167.84375,79.9375" style="fill:none;fill-rule:evenodd;stroke:#000000;stroke-width:1px;stroke-linecap:butt;stroke-linejoin:miter;stroke-opacity:1"/>
      <path id="path5136" d="M 146.37417,71.976973 C 146.90446,72.387794 147.0431,73.09779 146.68363,73.561792 C 146.32416,74.0258 145.60204,74.068955 145.07176,73.658134 C 144.54147,73.247312 144.40283,72.537316 144.7623,72.073308 C 145.12177,71.609306 145.84389,71.566152 146.37417,71.976973 z " style="opacity:0.6350711;fill:#000000;fill-opacity:1;stroke:none;stroke-width:1;stroke-miterlimit:4;stroke-opacity:1"/>
      <path id="rect5140" d="M 47.697414,35.565903 L 250.93098,35.565903 L 250.93098,238.30258 L 47.697414,238.30258 L 47.697414,35.565903 z " style="fill:none;fill-opacity:1;stroke:#000000;stroke-width:1;stroke-miterlimit:4;stroke-dasharray:4, 2;stroke-dashoffset:0;stroke-opacity:1"/>
      <path id="flowRoot10960" d="M 89.129812,262.40896 L 90.328055,262.40896 L 90.328055,266.15199 L 94.302428,262.40896 L 95.844722,262.40896 L 91.449184,266.53756 L 96.159113,271.26529 L 94.581227,271.26529 L 90.328055,267.00025 L 90.328055,271.26529 L 89.129812,271.26529 L 89.129812,262.40896 M 97.102284,262.40896 L 98.715761,262.40896 L 102.64268,269.8179 L 102.64268,262.40896 L 103.80533,262.40896 L 103.80533,271.26529 L 102.19185,271.26529 L 98.264937,263.85634 L 98.264937,271.26529 L 97.102284,271.26529 L 97.102284,262.40896 M 109.78469,263.22163 C 108.91467,263.22164 108.22262,263.54592 107.70852,264.19446 C 107.19838,264.84302 106.9433,265.72688 106.94331,266.84602 C 106.9433,267.96122 107.19838,268.8431 107.70852,269.49165 C 108.22262,270.1402 108.91467,270.46448 109.78469,270.46448 C 110.65469,270.46448 111.34279,270.1402 111.84899,269.49165 C 112.35912,268.8431 112.61419,267.96122 112.6142,266.84602 C 112.61419,265.72688 112.35912,264.84302 111.84899,264.19446 C 111.34279,263.54592 110.65469,263.22164 109.78469,263.22163 M 109.78469,262.2488 C 111.02642,262.24881 112.01903,262.66602 112.7625,263.50043 C 113.50596,264.3309 113.87769,265.4461 113.8777,266.84602 C 113.87769,268.242 113.50596,269.35719 112.7625,270.19161 C 112.01903,271.02208 111.02642,271.43731 109.78469,271.43731 C 108.53898,271.43731 107.54242,271.02208 106.79501,270.19161 C 106.05154,269.36115 105.67981,268.24595 105.67981,266.84602 C 105.67981,265.4461 106.05154,264.3309 106.79501,263.50043 C 107.54242,262.66602 108.53898,262.24881 109.78469,262.2488 M 116.95042,263.39366 L 116.95042,266.72145 L 118.45712,266.72145 C 119.01472,266.72146 119.44577,266.57711 119.75028,266.28842 C 120.05477,265.99974 120.20703,265.58847 120.20703,265.05459 C 120.20703,264.52468 120.05477,264.11538 119.75028,263.82669 C 119.44577,263.53801 119.01472,263.39366 118.45712,263.39366 L 116.95042,263.39366 M 115.75218,262.40896 L 118.45712,262.40896 C 119.44972,262.40897 120.19912,262.63438 120.70531,263.0852 C 121.21545,263.53208 121.47052,264.18854 121.47053,265.05459 C 121.47052,265.92856 121.21545,266.58898 120.70531,267.03584 C 120.19912,267.48272 119.44972,267.70615 118.45712,267.70615 L 116.95042,267.70615 L 116.95042,271.26529 L 115.75218,271.26529 L 115.75218,262.40896 M 124.28225,263.39366 L 124.28225,266.72145 L 125.78895,266.72145 C 126.34655,266.72146 126.7776,266.57711 127.08211,266.28842 C 127.3866,265.99974 127.53886,265.58847 127.53886,265.05459 C 127.53886,264.52468 127.3866,264.11538 127.08211,263.82669 C 126.7776,263.53801 126.34655,263.39366 125.78895,263.39366 L 124.28225,263.39366 M 123.084,262.40896 L 125.78895,262.40896 C 126.78155,262.40897 127.53095,262.63438 128.03714,263.0852 C 128.54728,263.53208 128.80235,264.18854 128.80236,265.05459 C 128.80235,265.92856 128.54728,266.58898 128.03714,267.03584 C 127.53095,267.48272 126.78155,267.70615 125.78895,267.70615 L 124.28225,267.70615 L 124.28225,271.26529 L 123.084,271.26529 L 123.084,262.40896 M 130.41583,262.40896 L 131.61407,262.40896 L 131.61407,271.26529 L 130.41583,271.26529 L 130.41583,262.40896 M 133.5716,262.40896 L 134.85883,262.40896 L 137.05956,265.70117 L 139.27216,262.40896 L 140.55938,262.40896 L 137.71207,266.66213 L 140.7492,271.26529 L 139.46198,271.26529 L 136.97058,267.49853 L 134.46139,271.26529 L 133.16823,271.26529 L 136.32994,266.53756 L 133.5716,262.40896" style="font-size:12.14853001px;fill:#000000" transform="matrix(2.1401766,0,0,2.1401766,-95.644473,-297.47617)"/>
      <path id="flowRoot10968" d="M 88.808805,261.53323 L 89.684444,261.53323 L 89.684444,267.26824 L 92.83588,267.26824 L 92.83588,268.00516 L 88.808805,268.00516 L 88.808805,261.53323 M 93.715855,263.15013 L 94.513467,263.15013 L 94.513467,268.00516 L 93.715855,268.00516 L 93.715855,263.15013 M 93.715855,261.26014 L 94.513467,261.26014 L 94.513467,262.27016 L 93.715855,262.27016 L 93.715855,261.26014 M 95.605849,263.15013 L 96.451145,263.15013 L 97.968342,267.22489 L 99.485539,263.15013 L 100.33084,263.15013 L 98.510198,268.00516 L 97.426486,268.00516 L 95.605849,263.15013 M 105.58467,265.37824 L 105.58467,265.76838 L 101.91739,265.76838 C 101.95207,266.31746 102.11679,266.7365 102.41156,267.02549 C 102.70922,267.31159 103.12248,267.45464 103.65133,267.45464 C 103.95766,267.45464 104.25387,267.41707 104.53997,267.34193 C 104.82896,267.26679 105.11506,267.15409 105.39828,267.00381 L 105.39828,267.75808 C 105.11217,267.87945 104.81885,267.97193 104.5183,268.03551 C 104.21775,268.09908 103.91286,268.13087 103.60365,268.13087 C 102.82915,268.13087 102.21505,267.90546 101.76134,267.45464 C 101.31051,267.00381 101.0851,266.39404 101.0851,265.62533 C 101.0851,264.83061 101.29895,264.20061 101.72666,263.73534 C 102.15725,263.26718 102.73668,263.03309 103.46493,263.03309 C 104.11805,263.03309 104.63389,263.24406 105.01247,263.66598 C 105.39394,264.08502 105.58467,264.65577 105.58467,265.37824 M 104.78706,265.14416 C 104.78128,264.70779 104.65846,264.35956 104.4186,264.09946 C 104.18162,263.83938 103.86662,263.70933 103.4736,263.70933 C 103.02855,263.70933 102.67165,263.83504 102.40289,264.08646 C 102.13702,264.33788 101.98386,264.6919 101.9434,265.1485 L 104.78706,265.14416 M 114.16768,267.08184 L 114.16768,265.34356 L 112.73717,265.34356 L 112.73717,264.62398 L 115.03465,264.62398 L 115.03465,267.40262 C 114.69652,267.64248 114.32372,267.82454 113.91625,267.94881 C 113.50877,268.07018 113.07384,268.13087 112.61146,268.13087 C 111.6,268.13087 110.80816,267.8361 110.23597,267.24656 C 109.66666,266.65414 109.382,265.83051 109.382,264.7757 C 109.382,263.718 109.66666,262.89438 110.23597,262.30483 C 110.80816,261.71241 111.6,261.4162 112.61146,261.41619 C 113.03339,261.4162 113.43364,261.46822 113.81222,261.57225 C 114.19368,261.67629 114.5448,261.82945 114.86559,262.03174 L 114.86559,262.96373 C 114.54191,262.6892 114.19801,262.48257 113.83389,262.34385 C 113.46976,262.20514 113.08685,262.13578 112.68516,262.13578 C 111.89332,262.13578 111.298,262.35686 110.8992,262.79901 C 110.50328,263.24117 110.30532,263.90006 110.30532,264.7757 C 110.30532,265.64845 110.50328,266.3059 110.8992,266.74806 C 111.298,267.19021 111.89332,267.41129 112.68516,267.41129 C 112.99437,267.41129 113.27036,267.38528 113.51311,267.33326 C 113.75586,267.27835 113.97405,267.19455 114.16768,267.08184 M 116.63854,261.53323 L 117.81762,261.53323 L 120.68729,266.94746 L 120.68729,261.53323 L 121.53692,261.53323 L 121.53692,268.00516 L 120.35784,268.00516 L 117.48817,262.59093 L 117.48817,268.00516 L 116.63854,268.00516 L 116.63854,261.53323 M 123.17983,261.53323 L 124.0598,261.53323 L 124.0598,265.46494 C 124.0598,266.15852 124.18551,266.65847 124.43694,266.9648 C 124.68835,267.26824 125.09583,267.41996 125.65936,267.41996 C 126.22,267.41996 126.62603,267.26824 126.87746,266.9648 C 127.12887,266.65847 127.25458,266.15852 127.25459,265.46494 L 127.25459,261.53323 L 128.13456,261.53323 L 128.13456,265.57331 C 128.13456,266.41716 127.92504,267.05439 127.50601,267.48498 C 127.08986,267.91558 126.47431,268.13087 125.65936,268.13087 C 124.84152,268.13087 124.22308,267.91558 123.80405,267.48498 C 123.3879,267.05439 123.17983,266.41716 123.17983,265.57331 L 123.17983,261.53323 M 131.16462,261.53323 L 131.90155,261.53323 L 129.64742,268.82878 L 128.9105,268.82878 L 131.16462,261.53323 M 132.78152,261.53323 L 133.65716,261.53323 L 133.65716,267.26824 L 136.8086,267.26824 L 136.8086,268.00516 L 132.78152,268.00516 L 132.78152,261.53323 M 137.68857,263.15013 L 138.48618,263.15013 L 138.48618,268.00516 L 137.68857,268.00516 L 137.68857,263.15013 M 137.68857,261.26014 L 138.48618,261.26014 L 138.48618,262.27016 L 137.68857,262.27016 L 137.68857,261.26014 M 144.18651,265.0748 L 144.18651,268.00516 L 143.3889,268.00516 L 143.3889,265.10081 C 143.3889,264.64132 143.29931,264.29742 143.12014,264.06912 C 142.94096,263.84082 142.6722,263.72667 142.31386,263.72667 C 141.88326,263.72667 141.5437,263.86394 141.29517,264.13848 C 141.04663,264.41302 140.92237,264.78726 140.92237,265.2612 L 140.92237,268.00516 L 140.12042,268.00516 L 140.12042,263.15013 L 140.92237,263.15013 L 140.92237,263.90439 C 141.1131,263.61252 141.33707,263.39433 141.59427,263.24983 C 141.85436,263.10534 142.15346,263.03309 142.49159,263.03309 C 143.04933,263.03309 143.47126,263.20649 143.75736,263.55327 C 144.04346,263.89717 144.18651,264.40435 144.18651,265.0748 M 145.70371,266.08916 L 145.70371,263.15013 L 146.50132,263.15013 L 146.50132,266.05881 C 146.50132,266.51831 146.59091,266.86365 146.77008,267.09484 C 146.94925,267.32315 147.21801,267.4373 147.57636,267.4373 C 148.00695,267.4373 148.34652,267.30003 148.59505,267.02549 C 148.84647,266.75095 148.97218,266.37671 148.97218,265.90276 L 148.97218,263.15013 L 149.7698,263.15013 L 149.7698,268.00516 L 148.97218,268.00516 L 148.97218,267.25957 C 148.77856,267.55434 148.55315,267.77397 148.29595,267.91847 C 148.04163,268.06007 147.74542,268.13087 147.4073,268.13087 C 146.84955,268.13087 146.42618,267.95748 146.13719,267.61069 C 145.8482,267.2639 145.70371,266.75673 145.70371,266.08916 M 155.45712,263.15013 L 153.7015,265.51262 L 155.54815,268.00516 L 154.60749,268.00516 L 153.19433,266.09783 L 151.78117,268.00516 L 150.8405,268.00516 L 152.72616,265.46494 L 151.00089,263.15013 L 151.94156,263.15013 L 153.22901,264.87974 L 154.51646,263.15013 L 155.45712,263.15013 M 163.4159,261.74564 L 163.4159,262.5996 C 163.08356,262.44067 162.77001,262.32218 162.47524,262.24415 C 162.18047,262.16613 161.89581,262.12711 161.62128,262.12711 C 161.14444,262.12711 160.77598,262.21959 160.51589,262.40454 C 160.25869,262.5895 160.13009,262.85248 160.13009,263.19348 C 160.13009,263.47958 160.21534,263.69633 160.38584,263.84371 C 160.55924,263.98821 160.8858,264.10525 161.36552,264.19483 L 161.89437,264.3032 C 162.54749,264.42747 163.02865,264.6471 163.33788,264.9621 C 163.64998,265.27421 163.80604,265.69324 163.80604,266.2192 C 163.80604,266.84631 163.59507,267.3217 163.17315,267.64537 C 162.75411,267.96904 162.13857,268.13087 161.32651,268.13087 C 161.02018,268.13087 160.69362,268.09619 160.34683,268.02684 C 160.00293,267.95748 159.64603,267.85489 159.27612,267.71906 L 159.27612,266.81741 C 159.63158,267.01682 159.97981,267.16709 160.32082,267.26824 C 160.66183,267.36938 160.99706,267.41996 161.32651,267.41996 C 161.82646,267.41996 162.21226,267.3217 162.48391,267.12519 C 162.75556,266.92868 162.89138,266.64836 162.89139,266.28423 C 162.89138,265.96634 162.79313,265.71781 162.59662,265.53863 C 162.40299,265.35946 162.08366,265.22508 161.63862,265.13549 L 161.10543,265.03146 C 160.45231,264.90141 159.97981,264.69768 159.68793,264.42024 C 159.39605,264.14281 159.25011,263.75701 159.25011,263.26284 C 159.25011,262.69064 159.45096,262.23982 159.85266,261.91036 C 160.25724,261.58092 160.81355,261.4162 161.52158,261.41619 C 161.82501,261.4162 162.13423,261.44365 162.44923,261.49855 C 162.76423,261.55347 163.08645,261.63583 163.4159,261.74564 M 167.15688,268.45599 C 166.93147,269.03397 166.71184,269.4111 166.49799,269.58738 C 166.28413,269.76366 165.99803,269.85181 165.63969,269.85181 L 165.00246,269.85181 L 165.00246,269.18424 L 165.47063,269.18424 C 165.69026,269.18424 165.86076,269.13222 165.98214,269.02819 C 166.10351,268.92415 166.23789,268.67851 166.38528,268.29126 L 166.52833,267.92713 L 164.56464,263.15013 L 165.40994,263.15013 L 166.92714,266.94746 L 168.44433,263.15013 L 169.28963,263.15013 L 167.15688,268.45599 M 173.48576,263.29318 L 173.48576,264.04744 C 173.26035,263.93185 173.02627,263.84516 172.78352,263.78735 C 172.54076,263.72956 172.28934,263.70066 172.02925,263.70066 C 171.63334,263.70066 171.33568,263.76135 171.13627,263.88272 C 170.93976,264.0041 170.8415,264.18616 170.8415,264.42891 C 170.8415,264.61387 170.91231,264.75981 171.05391,264.86673 C 171.19552,264.97077 171.48017,265.07047 171.90788,265.16584 L 172.18097,265.22652 C 172.74739,265.3479 173.14909,265.51985 173.38606,265.74237 C 173.62592,265.962 173.74585,266.26978 173.74585,266.66569 C 173.74585,267.11652 173.56668,267.47342 173.20833,267.7364 C 172.85287,267.99938 172.36303,268.13087 171.73882,268.13087 C 171.47873,268.13087 171.20708,268.10486 170.92387,268.05285 C 170.64355,268.00372 170.34733,267.92858 170.03522,267.82743 L 170.03522,267.00381 C 170.32999,267.15698 170.62043,267.27257 170.90653,267.3506 C 171.19263,267.42574 171.47584,267.46331 171.75616,267.46331 C 172.13184,267.46331 172.42083,267.39973 172.62313,267.27257 C 172.82542,267.14253 172.92656,266.96046 172.92657,266.72638 C 172.92656,266.50964 172.85287,266.34347 172.70549,266.22787 C 172.56099,266.11228 172.24166,266.00102 171.74749,265.89409 L 171.47006,265.82907 C 170.97588,265.72503 170.61898,265.56609 170.39935,265.35223 C 170.17972,265.13549 170.0699,264.83928 170.0699,264.46359 C 170.0699,264.00699 170.23174,263.65442 170.5554,263.40589 C 170.87907,263.15736 171.33857,263.03309 171.93389,263.03309 C 172.22865,263.03309 172.50608,263.05477 172.76618,263.09811 C 173.02627,263.14147 173.26613,263.20649 173.48576,263.29318 M 175.80924,261.77165 L 175.80924,263.15013 L 177.45215,263.15013 L 177.45215,263.77001 L 175.80924,263.77001 L 175.80924,266.4056 C 175.80924,266.80152 175.8627,267.05583 175.96963,267.16854 C 176.07944,267.28124 176.30052,267.3376 176.63286,267.3376 L 177.45215,267.3376 L 177.45215,268.00516 L 176.63286,268.00516 C 176.01731,268.00516 175.59249,267.89101 175.35841,267.66271 C 175.12433,267.43152 175.00729,267.01248 175.00729,266.4056 L 175.00729,263.77001 L 174.42209,263.77001 L 174.42209,263.15013 L 175.00729,263.15013 L 175.00729,261.77165 L 175.80924,261.77165 M 182.6583,265.37824 L 182.6583,265.76838 L 178.99102,265.76838 C 179.0257,266.31746 179.19042,266.7365 179.48519,267.02549 C 179.78285,267.31159 180.19611,267.45464 180.72496,267.45464 C 181.03129,267.45464 181.3275,267.41707 181.61361,267.34193 C 181.90259,267.26679 182.18869,267.15409 182.47191,267.00381 L 182.47191,267.75808 C 182.1858,267.87945 181.89248,267.97193 181.59193,268.03551 C 181.29138,268.09908 180.98649,268.13087 180.67728,268.13087 C 179.90278,268.13087 179.28868,267.90546 178.83497,267.45464 C 178.38414,267.00381 178.15873,266.39404 178.15873,265.62533 C 178.15873,264.83061 178.37258,264.20061 178.80029,263.73534 C 179.23088,263.26718 179.81031,263.03309 180.53856,263.03309 C 181.19168,263.03309 181.70752,263.24406 182.0861,263.66598 C 182.46757,264.08502 182.6583,264.65577 182.6583,265.37824 M 181.86069,265.14416 C 181.85491,264.70779 181.73209,264.35956 181.49223,264.09946 C 181.25525,263.83938 180.94026,263.70933 180.54723,263.70933 C 180.10219,263.70933 179.74528,263.83504 179.47652,264.08646 C 179.21065,264.33788 179.05749,264.6919 179.01703,265.1485 L 181.86069,265.14416 M 187.74741,264.08212 C 187.94681,263.72378 188.18523,263.45935 188.46266,263.28885 C 188.74009,263.11835 189.06665,263.03309 189.44234,263.03309 C 189.94807,263.03309 190.3382,263.21082 190.61275,263.56628 C 190.88728,263.91885 191.02455,264.42169 191.02456,265.0748 L 191.02456,268.00516 L 190.22261,268.00516 L 190.22261,265.10081 C 190.22261,264.63554 190.14024,264.2902 189.97553,264.06478 C 189.8108,263.83938 189.55937,263.72667 189.22126,263.72667 C 188.808,263.72667 188.48144,263.86394 188.24159,264.13848 C 188.00172,264.41302 187.88179,264.78726 187.88179,265.2612 L 187.88179,268.00516 L 187.07985,268.00516 L 187.07985,265.10081 C 187.07984,264.63265 186.99748,264.28731 186.83276,264.06478 C 186.66803,263.83938 186.41372,263.72667 186.06983,263.72667 C 185.66235,263.72667 185.33868,263.86538 185.09882,264.14281 C 184.85896,264.41736 184.73903,264.79015 184.73903,265.2612 L 184.73903,268.00516 L 183.93708,268.00516 L 183.93708,263.15013 L 184.73903,263.15013 L 184.73903,263.90439 C 184.92109,263.60674 185.13928,263.38711 185.39359,263.2455 C 185.6479,263.1039 185.94989,263.03309 186.29957,263.03309 C 186.65214,263.03309 186.95124,263.12268 187.19689,263.30185 C 187.44541,263.48103 187.62892,263.74112 187.74741,264.08212" style="font-size:8.87777233px;fill:#000000" transform="matrix(0,-2.1401766,2.1401766,0,-556.95341,432.94975)"/>
      <path id="path10976" d="M 45.185187,258.4956 L 248.55959,258.4956" style="fill:none;fill-rule:evenodd;stroke:#000000;stroke-width:1.4987154;stroke-linecap:butt;stroke-linejoin:miter;stroke-miterlimit:4;stroke-dasharray:5.99486166, 2.99743083, 1.49871542, 2.99743083;stroke-dashoffset:0;stroke-opacity:1"/>
      <path id="path11947" d="M 45.5,255.60811 L 45.5,261.75676 L 33.554054,258.41892 L 45.5,255.60811 z " style="fill:none;fill-rule:evenodd;stroke:#000000;stroke-width:1px;stroke-linecap:butt;stroke-linejoin:miter;stroke-opacity:1"/>
      <path id="path12918" d="M 248.5447,255.60835 L 248.5447,261.757 L 260.49064,258.41916 L 248.5447,255.60835 z " style="fill:none;fill-rule:evenodd;stroke:#000000;stroke-width:1px;stroke-linecap:butt;stroke-linejoin:miter;stroke-opacity:1"/>
      <path id="path12920" d="M 31.303808,250.47266 L 31.303808,266.37301" style="fill:none;fill-rule:evenodd;stroke:#000000;stroke-width:1px;stroke-linecap:butt;stroke-linejoin:miter;stroke-opacity:1"/>
      <path id="path12922" d="M 262.49389,250.47265 L 262.49389,266.373" style="fill:none;fill-rule:evenodd;stroke:#000000;stroke-width:1px;stroke-linecap:butt;stroke-linejoin:miter;stroke-opacity:1"/>
      <path id="path12933" d="M 23.07505,32.736159 L 23.07505,236.11056" style="fill:none;fill-rule:evenodd;stroke:#000000;stroke-width:1.4987154;stroke-linecap:butt;stroke-linejoin:miter;stroke-miterlimit:4;stroke-dasharray:5.99486166, 2.99743083, 1.49871542, 2.99743083;stroke-dashoffset:0;stroke-opacity:1"/>
      <path id="path12935" d="M 25.96254,33.050972 L 19.81389,33.050972 L 23.15173,21.105026 L 25.96254,33.050972 z " style="fill:none;fill-rule:evenodd;stroke:#000000;stroke-width:1px;stroke-linecap:butt;stroke-linejoin:miter;stroke-opacity:1"/>
      <path id="path12937" d="M 25.9623,236.09567 L 19.81365,236.09567 L 23.15149,248.04161 L 25.9623,236.09567 z " style="fill:none;fill-rule:evenodd;stroke:#000000;stroke-width:1px;stroke-linecap:butt;stroke-linejoin:miter;stroke-opacity:1"/>
      <path id="path12939" d="M 31.09799,18.85478 L 15.19764,18.85478" style="fill:none;fill-rule:evenodd;stroke:#000000;stroke-width:1px;stroke-linecap:butt;stroke-linejoin:miter;stroke-opacity:1"/>
      <path id="path12941" d="M 31.843329,250.04486 L 15.19765,250.04486" style="fill:none;fill-rule:evenodd;stroke:#000000;stroke-width:1px;stroke-linecap:butt;stroke-linejoin:miter;stroke-opacity:1"/>
      <path id="path26553" d="M 153.91592,71.294616 C 152.23894,70.611398 153.11914,66.654281 153.22205,65.000433 C 154.38579,60.345467 159.19503,60.25719 159.19503,60.25719 C 159.19503,60.25719 165.34368,61.135568 164.81665,66.932865 C 164.67597,66.979071 165.92145,72.50139 163.01597,76.331514" style="fill:#000000;fill-opacity:1;fill-rule:evenodd;stroke:#000000;stroke-width:1px;stroke-linecap:butt;stroke-linejoin:miter;stroke-opacity:1"/>
      <path id="path2200" d="M 106.07007,206.86467 C 117.51824,215.44113 131.79898,216.93286 131.79898,216.93286 L 125.33946,219.66574 L 118.6315,215.81487 L 105.83669,209.0448 C 105.58825,207.18148 106.07007,206.86467 106.07007,206.86467 z " style="fill:#e7c100;fill-opacity:1;fill-rule:evenodd;stroke:none;stroke-width:1px;stroke-linecap:butt;stroke-linejoin:miter;stroke-opacity:1"/>
      <path id="path3173" d="M 192.60682,206.62337 C 181.15865,215.19983 166.85595,216.93312 166.85595,216.93312 L 173.31547,219.666 L 180.02343,215.81513 L 192.81824,209.04506 C 193.06668,207.18174 192.60682,206.62337 192.60682,206.62337 z " style="fill:#e7c100;fill-opacity:1;fill-rule:evenodd;stroke:none;stroke-width:1px;stroke-linecap:butt;stroke-linejoin:miter;stroke-opacity:1"/>
    </g>
  </g>
</svg>