<?xml version="1.0" encoding="UTF-8"?>
<!-- Generator: Adobe Illustrator 27.4.1, SVG Export Plug-In . SVG Version: 6.00 Build 0)  -->
<svg version="1.1" id="Layer_1" xmlns:inkscape="http://www.inkscape.org/namespaces/inkscape" xmlns:sodipodi="http://sodipodi.sourceforge.net/DTD/sodipodi-0.dtd" xmlns:rdf="http://www.w3.org/1999/02/22-rdf-syntax-ns#" xmlns:svg="http://www.w3.org/2000/svg" xmlns:dc="http://purl.org/dc/elements/1.1/" xmlns:cc="http://creativecommons.org/ns#" xmlns="http://www.w3.org/2000/svg" xmlns:xlink="http://www.w3.org/1999/xlink" x="0px" y="0px" viewBox="0 0 200 200" style="enable-background:new 0 0 200 200;" xml:space="preserve">
<style type="text/css">
	.st0{fill:#48B9C7;}
	.st1{fill:#FFFFFF;}
</style>
<g id="g18" transform="matrix(0.21141649,0,0,0.21141649,5,4.7885835)">
	<g id="g8">
		<circle id="circle4" class="st0" cx="449.4" cy="450.4" r="473"/>
		<path id="rect6" class="st1" d="M236.4,702.4h426c20.4,0,37,16.6,37,37v3c0,20.4-16.6,37-37,37h-426c-20.4,0-37-16.6-37-37v-3    C199.4,718.9,215.9,702.4,236.4,702.4z"/>
	</g>
	<path id="path10" inkscape:connector-curvature="0" class="st1" d="M512.4,333.4c-24,51-64,92-120,112l48,125c9,23,17,47,10,69   c-7,22-39,29-62,5c-44-47-192-343-203-365c-11-22-23-40-23-62c1-33,52-67,77-84c25-17,74-40,117-41s61,9,86,25c38,25,65,64,75,109   c10,45,7,80-5,105 M399.4,277.4c-9-31-28-61-53-81c-5-4-11-9-18-11c-46-15-26,62-19,82c7,20,26,62,47,83c5,5,10,9,16,10   c6,1,18-5,23-13c5-8,6-14,6-22C403.7,309.4,403,293.1,399.4,277.4z"/>
	<g id="g16">
		<path id="path12" inkscape:connector-curvature="0" class="st1" d="M601.4,640.4c-2,9-7,17-15,22c-8,5-27,5-38-4    c-11-9-13-24-10-36c3-12,13-25,27-29C594.4,584.4,607.4,616.4,601.4,640.4z"/>
		<path id="path14" inkscape:connector-curvature="0" class="st1" d="M583.4,549.4c-18-7-12-103,5-220c5-32,13-48,22-56    c9-8,36-12,52-9c18.4,2.7,35.5,11.1,49,24c12,11,13,23,9,38s-18,47-29,70l-28,53C609.4,545.4,598.4,555.4,583.4,549.4z"/>
	</g>
</g>
</svg>