<svg xmlns="http://www.w3.org/2000/svg" id="Layer_1" x="0" y="0" version="1.1" xml:space="preserve" viewBox="0 0 309.81381 59.731277">
  <defs/>
  <style id="style2" type="text/css">
    .st0{fill:#fff}.st1{fill:#86da2f}.st2{fill:#24c2ff}.st3{fill:#ffcb12}.st4{fill:#0069da}.st5{fill:#ff4649}
  </style>
  <path id="path4" d="M95.71382 47.931278l-2.1-6.3h-14l-2.1 6.3h-7.5l12.2-35h8.6l12.3 35zm-13.9-12.8h9.6l-4.8-14.3z" class="st0"/>
  <path id="path6" d="M106.31382 47.931278v-36.5h6.5v36.5z" class="st0"/>
  <path id="path8" d="M146.31382 22.231278c2.9 0 5.1.9 6.8 2.8 1.7 1.9 2.6 4.4 2.6 7.5v15.4h-6.4v-15c0-1.5-.4-2.7-1.1-3.5-.7-.8-1.8-1.2-3.1-1.2-1.5 0-2.6.5-3.4 1.5-.8 1-1.2 2.4-1.2 4.2v14h-6.4v-15c0-1.5-.4-2.7-1.1-3.5-.7-.8-1.8-1.2-3.1-1.2-1.4 0-2.6.5-3.5 1.5-.8 1-1.2 2.4-1.2 4.2v14h-6.4v-25h6.4v2.6c1.5-2.2 3.8-3.4 7-3.4 3.1 0 5.3 1.2 6.8 3.6 1.5-2.3 4-3.5 7.3-3.5z" class="st0"/>
  <path id="path10" d="M180.21382 22.931278h6.4v25h-6.4v-3c-1.9 2.4-4.7 3.7-8.2 3.7-3.3 0-6.2-1.3-8.6-3.8-2.4-2.6-3.6-5.7-3.6-9.4s1.2-6.8 3.6-9.4c2.4-2.6 5.3-3.9 8.6-3.9 3.5 0 6.2 1.2 8.2 3.7zm-11.9 17.6c1.3 1.3 2.9 2 4.9 2 2 0 3.7-.6 5-2 1.3-1.3 2-3 2-5.1 0-2.1-.7-3.8-2-5-1.3-1.3-3-2-5-2s-3.6.7-4.9 2c-1.3 1.3-1.9 3-1.9 5s.6 3.8 1.9 5.1z" class="st0"/>
  <path id="path12" d="M199.71382 41.331278h13.3v6.6h-20.2v-35h6.9z" class="st0"/>
  <path id="path14" d="M219.91382 19.931278c-1.1 0-2-.4-2.8-1.1-.8-.8-1.2-1.7-1.2-2.8 0-1.1.4-2 1.2-2.8.8-.8 1.7-1.2 2.8-1.2 1.1 0 2 .4 2.8 1.2.8.8 1.2 1.7 1.2 2.8 0 1.1-.4 2-1.2 2.8-.8.7-1.7 1.1-2.8 1.1zm-3.2 28v-25h6.5v25z" class="st0"/>
  <path id="path16" d="M242.91382 22.231278c2.7 0 5 .9 6.8 2.8 1.8 1.8 2.7 4.4 2.7 7.6v15.3h-6.4v-14.6c0-1.7-.5-2.9-1.4-3.8-.9-.9-2.1-1.4-3.6-1.4-1.7 0-3 .5-4 1.6s-1.5 2.6-1.5 4.7v13.5h-6.4v-25h6.4v2.8c1.6-2.3 4-3.5 7.4-3.5z" class="st0"/>
  <path id="path18" d="M274.41382 22.931278h6.5v25h-6.5v-2.8c-1.6 2.3-4 3.5-7.4 3.5-2.7 0-5-.9-6.8-2.8-1.8-1.8-2.6-4.4-2.6-7.6v-15.3h6.5v14.5c0 1.7.4 3 1.3 3.9.9.9 2.1 1.3 3.6 1.3 1.7 0 3-.5 4-1.5s1.5-2.6 1.5-4.7v-13.5z" class="st0"/>
  <path id="path20" d="M309.81382 47.931278h-7.5l-5.4-7.6-5.5 7.6h-7.4l9.1-12.8-8.8-12.2h7.4l5.1 7 5-7h7.4l-8.8 12.2z" class="st0"/>
  <path id="path22" d="M56.11382 33.731278c2.6-.2 4.7 1.5 4.9 4.1.2 2.7-1.7 4.9-4.3 5.1-2.5.2-4.7-1.7-4.9-4.2-.2-2.7 1.6-4.7 4.3-5z" class="st1"/>
  <path id="path24" d="M24.51382 55.031278c0-2.6 2-4.6 4.4-4.6 2.4 0 4.7 2.2 4.7 4.7 0 2.4-2 4.5-4.3 4.6-2.9 0-4.8-1.8-4.8-4.7z" class="st2"/>
  <path id="path26" d="M31.61382 25.831278c-.4.2-.6-.1-.7-.4-3.7-6.9-2.6-15.6000004 3.9-20.8000004 1.7-1.4 4.9-1.7 6.3-.3.6.5.7 1.1.8 1.8.2 1.5.5 3 1.5 4.2000004 1.1 1.3 2.5 1.8 4.1 1.7 1.4 0 2.8-.2 3.7 1.4.5.9.3 4.4-.5 5.1-.4.3-.7.1-1 0-2.3-.9-4.7-.9-7.1-.5-.8.1-1.2-.1-1.2-1-.1-1.5-.4-2.9-1.2-4.2-1.5-2.7-4.3-2.8-6.1-.3-1.5 2-1.9 4.4-2.3 6.8-.4 2.1-.3 4.3-.2 6.5 0 0-.1 0 0 0z" class="st3"/>
  <path id="path28" d="M34.11382 27.331278c-.2-.3-.1-.6.2-.8 5.7-5.2 14.2-6.2 20.8-1.1 1.7 1.4 2.8 4.3 1.9 6-.4.7-.9 1-1.5 1.2-1.4.6-2.7 1.2-3.6 2.5-.9 1.3-1.1 2.8-.7 4.4.3 1.3.8 2.7-.5 3.9-.7.7-4.1 1.3-5 .7-.4-.3-.3-.6-.2-1 .3-2.5-.3-4.8-1.2-7-.3-.8-.2-1.2.6-1.4 1.4-.4 2.7-1.1 3.7-2.1 2.2-2.1 1.7-4.8-1.2-6-2.3-1-4.7-.8-7-.6-2.2.1-4.3.7-6.3 1.3z" class="st1"/>
  <path id="path30" d="M32.81382 29.931278c.3-.3.5-.2.8 0 6.6 4 10 11.9 7 19.6-.8 2-3.4 4-5.3 3.5-.8-.2-1.2-.6-1.6-1.1-.9-1.2-1.9-2.3-3.4-2.8-1.6-.5-3-.2-4.4.6-1.2.7-2.4 1.6-3.9.7-.9-.5-2.4-3.6-2.1-4.6.2-.4.6-.4 1-.4 2.5-.4 4.5-1.6 6.4-3.2.6-.5 1.1-.5 1.6.2.8 1.2 1.8 2.2 3.1 2.9 2.6 1.5 5.1.2 5.4-2.8.3-2.5-.6-4.7-1.4-6.9-.9-2-2-3.9-3.2-5.7z" class="st2"/>
  <path id="path32" d="M29.61382 30.531278c-.4 2-1.3 3.9-2.5 5.6-3.6 5.4-8.8 7.6-15.2 7-2.2999997-.2-4.1999997-2.1-4.3999997-4-.1-.8.1-1.4.6-2 .7-.9 1.3-1.7 1.6-2.8.5999997-2.2-.2-4-1.8-5.6-2.2-2.2-1.9-4.2.7-5.8.3-.2.7-.4 1.1-.6.5999997-.3 1.0999997-.3 1.2999997.4.9 2.3 2.7 4 4.7 5.4.7.6.7 1 .1 1.7-1.2 1.3-1.9 2.9-2 4.7-.2 2.2 1.1 3.6 3.3 3.6 1.4 0 2.7-.5 3.9-1.1 3.1-1.6 5.5-3.9 7.8-6.3.3-.1.4-.3.8-.2z" class="st4"/>
  <path id="path34" d="M13.21382 9.5312776c.2 0 .7.1 1.2.2 3.7.7000004 6-.6 7.2-4.1.8-2.3 2.5-3 4.7-1.8.1 0 .1.1.2.1 2.3 1.3 2.3 1.5.9 3.5-1.2 1.6-1.8 3.4000004-2.1 5.3000004-.2 1.1-.6 1.3-1.6.9-1.6-.6-3.3-.6-5 0-1.9.6-2.7 2.3-2.1 4.2.8 2.5 3 3.6 4.9 4.9 1.9 1.3 4.1 2 6.2 2.9.3.1.8.1.7.6-.1.3-.5.3-.9.3-4.5.2-8.8-.5-12.3-3.5-3.3-2.7-5.6999997-6-5.2999997-10.6.2999997-1.5 1.3999997-2.6000004 3.2999997-2.9000004z" class="st5"/>
  <path id="path36" d="M5.0138203 37.631278c-2.4.3-4.80000003-1.7-5.00000003-4.2-.2-2.4 1.80000003-4.8 4.10000003-5 2.6-.3 5 1.5 5.2 3.9.1 2.3-1.4 5.1-4.3 5.3z" class="st4"/>
  <path id="path38" d="M47.01382 2.0312776c2.5-.2 4.9 1.8 5.1 4.3.2 2.4-1.8 4.7000004-4.2 4.9000004-2.6.2-4.9-1.7000004-5.1-4.2000004-.2-2.5 1.6-4.8 4.2-5z" class="st3"/>
  <path id="path40" d="M20.91382 3.9312776c.3 2.6-1.5 4.8-4.2 5.2-2.3.3-4.7-1.6-5-3.8-.3-2.9 1.3-4.99999996 4-5.29999996 2.5-.3 4.9 1.59999996 5.2 3.89999996z" class="st5"/>
</svg>
