<?xml version="1.0" encoding="UTF-8" standalone="no"?>
<!-- Created with Inkscape (http://www.inkscape.org/) -->
<svg xmlns:dc="http://purl.org/dc/elements/1.1/" xmlns:cc="http://web.resource.org/cc/" xmlns:rdf="http://www.w3.org/1999/02/22-rdf-syntax-ns#" xmlns:svg="http://www.w3.org/2000/svg" xmlns="http://www.w3.org/2000/svg" xmlns:sodipodi="http://sodipodi.sourceforge.net/DTD/sodipodi-0.dtd" xmlns:inkscape="http://www.inkscape.org/namespaces/inkscape" width="210mm" height="297mm" id="svg2159" sodipodi:version="0.32" inkscape:version="0.45.1" sodipodi:docbase="/home/hacker" sodipodi:docname="spider.svg" inkscape:output_extension="org.inkscape.output.svg.inkscape" inkscape:export-filename="/home/hacker/spider.png" inkscape:export-xdpi="91.878227" inkscape:export-ydpi="91.878227">
  <defs id="defs2161"/>
  <sodipodi:namedview id="base" pagecolor="#ffffff" bordercolor="#666666" borderopacity="1.0" inkscape:pageopacity="0.0" inkscape:pageshadow="2" inkscape:zoom="0.98994949" inkscape:cx="235.14235" inkscape:cy="560.73816" inkscape:document-units="px" inkscape:current-layer="layer1" inkscape:window-width="1278" inkscape:window-height="752" inkscape:window-x="0" inkscape:window-y="0"/>
  <metadata id="metadata2164">
    <rdf:RDF>
      <cc:Work rdf:about="">
        <dc:format>image/svg+xml</dc:format>
        <dc:type rdf:resource="http://purl.org/dc/dcmitype/StillImage"/>
      </cc:Work>
    </rdf:RDF>
  </metadata>
  <g inkscape:label="Calque 1" inkscape:groupmode="layer" id="layer1" style="display:inline" sodipodi:insensitive="true">
    <path style="fill:#000000" d="M 462.20953,828.56443 C 465.48836,823.93559 478.2353,806.94527 490.53603,790.80817 C 517.89352,754.9184 533.49,726.79624 547.16549,688.69932 C 563.2837,643.79746 562.50056,640.6712 528.77974,615.30528 C 498.04536,592.18586 474.10254,576.70015 469.05394,576.67592 C 467.35363,576.66771 467.13004,588.05684 468.55703,601.98504 C 476.22368,676.81633 434.09628,763.49539 376.49999,791.39654 C 357.35377,800.67145 323.57686,801.75894 308.00643,793.60174 C 252.38021,764.45973 237.18028,674.08742 273.35699,587.5905 C 275.32878,582.87604 274.45715,580.6354 270.65143,580.6354 C 262.92179,580.6354 179.21468,630.7284 173.07621,639.02752 C 165.53512,649.22295 167.00045,702.2114 175.77196,736.50747 C 179.98693,752.98807 190.77011,781.44229 199.73452,799.73913 L 216.03345,833.00607 L 193.76455,809.18724 C 163.63424,776.95987 135.49139,718.366 124.69828,665.39013 L 116.74245,626.34032 L 127.31587,617.61414 C 133.13125,612.81473 153.771,600.29554 173.18202,589.79374 C 220.09404,564.41323 224.87795,558.61312 195.92865,562.21528 C 124.53906,571.09829 112.18606,573.73514 108.34582,580.91069 C 100.68885,595.21786 88.00449,682.45664 88.160643,719.73733 C 88.307087,754.6924 87.896183,756.71684 82.622603,747.02394 C 79.489672,741.26559 73.059341,722.48684 68.333018,705.29335 C 60.690116,677.48998 60.0124,667.87839 62.205628,618.39162 C 65.553881,542.84329 65.79841,542.02834 86.050442,538.93385 C 95.115101,537.54876 118.62771,533.93501 138.30071,530.90328 C 157.9737,527.87148 183.45915,524.23973 194.93507,522.83268 C 215.7252,520.2836 222.06244,514.74828 208.84527,510.68276 C 186.6661,503.86065 95.799095,467.34722 94.080421,464.56644 C 90.695706,459.08982 100.21644,434.20567 124.50676,385.04185 C 140.93948,351.78194 155.81805,328.72737 176.60459,304.31565 C 192.60743,285.52192 206.26464,271.83713 206.95394,273.90506 C 207.64327,275.97303 202.00299,289.04994 194.42009,302.96485 C 178.63371,331.93332 143.79182,431.70879 146.76066,439.44548 C 148.85962,444.91529 250.56775,483.60337 253.95185,480.21921 C 255.0448,479.12626 240.20529,464.95102 220.97514,448.71869 C 201.74503,432.48634 185.4807,416.45018 184.83223,413.08281 C 184.18373,409.71546 193.06811,391.04226 204.5754,371.58688 C 219.70324,346.01003 237.08793,324.65618 267.34752,294.4828 C 290.36492,271.53099 315.45698,249.30592 323.10758,245.09372 L 337.01778,237.4352 L 320.41066,255.62643 C 281.86476,297.84912 250.53611,347.91533 239.42218,385.05397 L 234.32108,402.09978 L 251.88754,420.15366 C 276.42477,445.37179 318.28265,478.29735 322.49514,475.69387 C 324.42795,474.49934 326.99186,466.19666 328.19271,457.2435 C 331.40458,433.2975 347.59095,411.56361 371.07628,399.66269 C 399.7045,385.15566 419.20541,389.30816 440.32609,414.40869 C 450.17749,426.11638 450.96464,429.50933 449.5671,454.24167 C 448.72692,469.11104 449.38353,481.27687 451.02625,481.27687 C 458.27604,481.27687 554.3997,414.74858 562.77908,403.9315 C 567.72699,397.54408 562.87605,354.96547 553.90519,326.04238 C 549.45825,311.70475 537.01597,285.32573 526.25568,267.42232 C 508.19572,237.37331 507.56354,235.4916 518.03339,242.94675 C 548.92663,264.94468 586.72508,323.30673 603.56114,375.00437 C 614.68613,409.16534 614.71075,409.46898 607.04481,417.97098 C 602.79852,422.68032 581.52087,438.2816 559.76114,452.64047 C 538.00136,466.99933 522.2739,479.43945 524.8112,480.28523 C 532.43123,482.82522 629.66338,448.95061 637.63556,440.97843 C 641.85242,436.76157 645.00145,428.03495 644.96457,420.66816 C 644.80463,388.72878 636.96203,318.05206 631.03451,295.13203 C 627.45234,281.28085 625.32873,269.14078 626.3154,268.15412 C 628.94933,265.52021 650.99213,301.03753 662.38804,326.27755 C 674.57652,353.27286 689.7036,426.1988 688.0132,449.81311 L 686.7598,467.3225 L 641.05489,484.05688 C 615.91718,493.26073 585.00189,503.80804 572.35426,507.49532 C 547.28062,514.80519 544.32081,522.36459 565.84846,524.11115 C 595.59895,526.52488 683.00016,541.61078 686.35168,544.91064 C 690.91311,549.40172 680.08245,604.41626 665.44631,651.10005 C 655.31984,683.3997 619.66824,751.53207 612.89329,751.53207 C 611.35348,751.53207 613.38795,740.94758 617.41426,728.01092 C 631.00355,684.34853 642.54415,584.21735 634.81374,577.04613 C 632.78165,575.16106 615.91718,571.53697 597.33712,568.99264 C 578.75708,566.4483 557.74277,563.35691 550.63863,562.12281 C 532.52007,558.97544 534.2017,566.32794 554.61297,579.49942 C 595.36681,605.79807 613.2345,620.82937 613.2345,628.81514 C 613.2345,641.61939 578.586,705.50593 554.58263,736.96018 C 542.62826,752.62533 522.76637,775.86402 510.44506,788.60175 C 484.24662,815.68565 452.98721,841.58372 462.20953,828.56443 z " id="path2158" inkscape:export-xdpi="90" inkscape:export-ydpi="90"/>
  </g>
</svg>