<?xml version="1.0" encoding="UTF-8" standalone="no"?>
<!-- Created with Inkscape (http://www.inkscape.org/) -->
<svg
   xmlns:dc="http://purl.org/dc/elements/1.1/"
   xmlns:cc="http://creativecommons.org/ns#"
   xmlns:rdf="http://www.w3.org/1999/02/22-rdf-syntax-ns#"
   xmlns:svg="http://www.w3.org/2000/svg"
   xmlns="http://www.w3.org/2000/svg"
   xmlns:xlink="http://www.w3.org/1999/xlink"
   xmlns:sodipodi="http://sodipodi.sourceforge.net/DTD/sodipodi-0.dtd"
   xmlns:inkscape="http://www.inkscape.org/namespaces/inkscape"
   width="181.12154"
   height="179.14774"
   id="svg2"
   sodipodi:version="0.32"
   inkscape:version="0.46"
   version="1.0"
   sodipodi:docname="logo.svg"
   inkscape:output_extension="org.inkscape.output.svg.inkscape"
   inkscape:export-filename="/home/ru/Escritorio/dibujo2.png"
   inkscape:export-xdpi="90"
   inkscape:export-ydpi="90"
   style="display:inline">
  <defs
     id="defs4">
    <filter
       inkscape:collect="always"
       id="filter3494"
       x="-0.026300723"
       width="1.0526015"
       y="-0.104625"
       height="1.20925">
      <feGaussianBlur
         inkscape:collect="always"
         stdDeviation="1.4251155"
         id="feGaussianBlur3496" />
    </filter>
    <filter
       inkscape:collect="always"
       id="filter3490"
       x="-0.028638335"
       width="1.0572767"
       y="-0.104625"
       height="1.20925">
      <feGaussianBlur
         inkscape:collect="always"
         stdDeviation="1.4251155"
         id="feGaussianBlur3492" />
    </filter>
    <linearGradient
       id="linearGradient3328">
      <stop
         id="stop3330"
         offset="0"
         style="stop-color: rgb(25, 55, 127); stop-opacity: 1;" />
      <stop
         style="stop-color: rgb(51, 101, 162); stop-opacity: 1;"
         offset="0.5"
         id="stop3332" />
      <stop
         id="stop3334"
         offset="1"
         style="stop-color: rgb(93, 157, 203); stop-opacity: 1;" />
    </linearGradient>
    <linearGradient
       id="linearGradient3397">
      <stop
         style="stop-color: rgb(33, 92, 33); stop-opacity: 1;"
         offset="0"
         id="stop3399" />
      <stop
         style="stop-color: rgb(33, 92, 33); stop-opacity: 0;"
         offset="1"
         id="stop3401" />
    </linearGradient>
    <linearGradient
       id="linearGradient3349">
      <stop
         style="stop-color: rgb(19, 107, 6); stop-opacity: 1;"
         offset="0"
         id="stop3351" />
      <stop
         style="stop-color: rgb(0, 0, 0); stop-opacity: 0;"
         offset="1"
         id="stop3353" />
    </linearGradient>
    <linearGradient
       id="linearGradient3317">
      <stop
         style="stop-color: rgb(218, 255, 0); stop-opacity: 0.603922;"
         offset="0"
         id="stop3319" />
      <stop
         style="stop-color: rgb(255, 243, 0); stop-opacity: 0;"
         offset="1"
         id="stop3321" />
    </linearGradient>
    <linearGradient
       id="linearGradient3307">
      <stop
         style="stop-color: rgb(0, 149, 255); stop-opacity: 1;"
         offset="0"
         id="stop3309" />
      <stop
         style="stop-color: rgb(19, 62, 88); stop-opacity: 0;"
         offset="1"
         id="stop3311" />
    </linearGradient>
    <linearGradient
       id="linearGradient3297">
      <stop
         id="stop3299"
         offset="0"
         style="stop-color: rgb(0, 0, 0); stop-opacity: 0.431507;" />
      <stop
         id="stop3301"
         offset="1"
         style="stop-color: rgb(255, 243, 0); stop-opacity: 0;" />
    </linearGradient>
    <linearGradient
       inkscape:collect="always"
       id="linearGradient3263">
      <stop
         style="stop-color: rgb(255, 243, 0); stop-opacity: 1;"
         offset="0"
         id="stop3265" />
      <stop
         style="stop-color: rgb(255, 243, 0); stop-opacity: 0;"
         offset="1"
         id="stop3267" />
    </linearGradient>
    <linearGradient
       id="linearGradient3175">
      <stop
         style="stop-color: rgb(0, 69, 0); stop-opacity: 1;"
         offset="0"
         id="stop3177" />
      <stop
         id="stop3433"
         offset="0.5"
         style="stop-color: rgb(56, 127, 0); stop-opacity: 1;" />
      <stop
         style="stop-color: rgb(155, 199, 0); stop-opacity: 1;"
         offset="1"
         id="stop3179" />
    </linearGradient>
    <inkscape:perspective
       sodipodi:type="inkscape:persp3d"
       inkscape:vp_x="0 : 526.18109 : 1"
       inkscape:vp_y="0 : 1000 : 0"
       inkscape:vp_z="744.09448 : 526.18109 : 1"
       inkscape:persp3d-origin="372.04724 : 350.78739 : 1"
       id="perspective10" />
    <radialGradient
       inkscape:collect="always"
       xlink:href="#linearGradient3263"
       id="radialGradient3271"
       cx="184.9425"
       cy="407.18372"
       fx="184.9425"
       fy="407.18372"
       r="124.72867"
       gradientTransform="matrix(1,0,0,3.8046,0,-1141.99)"
       gradientUnits="userSpaceOnUse" />
    <radialGradient
       inkscape:collect="always"
       xlink:href="#linearGradient3297"
       id="radialGradient3295"
       gradientUnits="userSpaceOnUse"
       gradientTransform="matrix(1,0,0,3.8046,0,-1141.99)"
       cx="184.9425"
       cy="407.18372"
       fx="184.9425"
       fy="407.18372"
       r="124.72867" />
    <linearGradient
       inkscape:collect="always"
       xlink:href="#linearGradient3317"
       id="linearGradient3325"
       x1="666.64209"
       y1="414.10834"
       x2="757.67969"
       y2="414.10834"
       gradientUnits="userSpaceOnUse"
       spreadMethod="reflect" />
    <radialGradient
       inkscape:collect="always"
       xlink:href="#linearGradient3397"
       id="radialGradient3403"
       cx="855.17987"
       cy="564.88666"
       fx="855.17987"
       fy="564.88666"
       r="194.26131"
       gradientTransform="matrix(1,0,0,0.619926,0,214.699)"
       gradientUnits="userSpaceOnUse" />
    <inkscape:perspective
       id="perspective2420"
       inkscape:persp3d-origin="372.04724 : 350.78739 : 1"
       inkscape:vp_z="744.09448 : 526.18109 : 1"
       inkscape:vp_y="0 : 1000 : 0"
       inkscape:vp_x="0 : 526.18109 : 1"
       sodipodi:type="inkscape:persp3d" />
    <inkscape:perspective
       id="perspective2482"
       inkscape:persp3d-origin="372.04724 : 350.78739 : 1"
       inkscape:vp_z="744.09448 : 526.18109 : 1"
       inkscape:vp_y="0 : 1000 : 0"
       inkscape:vp_x="0 : 526.18109 : 1"
       sodipodi:type="inkscape:persp3d" />
    <inkscape:perspective
       id="perspective2535"
       inkscape:persp3d-origin="372.04724 : 350.78739 : 1"
       inkscape:vp_z="744.09448 : 526.18109 : 1"
       inkscape:vp_y="0 : 1000 : 0"
       inkscape:vp_x="0 : 526.18109 : 1"
       sodipodi:type="inkscape:persp3d" />
    <inkscape:perspective
       id="perspective3266"
       inkscape:persp3d-origin="372.04724 : 350.78739 : 1"
       inkscape:vp_z="744.09448 : 526.18109 : 1"
       inkscape:vp_y="0 : 1000 : 0"
       inkscape:vp_x="0 : 526.18109 : 1"
       sodipodi:type="inkscape:persp3d" />
    <inkscape:perspective
       id="perspective3317"
       inkscape:persp3d-origin="372.04724 : 350.78739 : 1"
       inkscape:vp_z="744.09448 : 526.18109 : 1"
       inkscape:vp_y="0 : 1000 : 0"
       inkscape:vp_x="0 : 526.18109 : 1"
       sodipodi:type="inkscape:persp3d" />
    <inkscape:perspective
       id="perspective2492"
       inkscape:persp3d-origin="372.04724 : 350.78739 : 1"
       inkscape:vp_z="744.09448 : 526.18109 : 1"
       inkscape:vp_y="0 : 1000 : 0"
       inkscape:vp_x="0 : 526.18109 : 1"
       sodipodi:type="inkscape:persp3d" />
    <inkscape:perspective
       id="perspective3203"
       inkscape:persp3d-origin="372.04724 : 350.78739 : 1"
       inkscape:vp_z="744.09448 : 526.18109 : 1"
       inkscape:vp_y="0 : 1000 : 0"
       inkscape:vp_x="0 : 526.18109 : 1"
       sodipodi:type="inkscape:persp3d" />
    <linearGradient
       inkscape:collect="always"
       xlink:href="#linearGradient3328"
       id="linearGradient3234"
       gradientUnits="userSpaceOnUse"
       x1="-9.0727692"
       y1="-863.40924"
       x2="1178.7058"
       y2="-863.40924" />
    <inkscape:perspective
       id="perspective2494"
       inkscape:persp3d-origin="372.04724 : 350.78739 : 1"
       inkscape:vp_z="744.09448 : 526.18109 : 1"
       inkscape:vp_y="0 : 1000 : 0"
       inkscape:vp_x="0 : 526.18109 : 1"
       sodipodi:type="inkscape:persp3d" />
    <inkscape:perspective
       id="perspective2466"
       inkscape:persp3d-origin="372.04724 : 350.78739 : 1"
       inkscape:vp_z="744.09448 : 526.18109 : 1"
       inkscape:vp_y="0 : 1000 : 0"
       inkscape:vp_x="0 : 526.18109 : 1"
       sodipodi:type="inkscape:persp3d" />
    <linearGradient
       gradientUnits="userSpaceOnUse"
       y2="15.465387"
       x2="21.795116"
       y1="50.395214"
       x1="29.854376"
       id="linearGradient8126"
       xlink:href="#linearGradient8112"
       inkscape:collect="always" />
    <linearGradient
       gradientUnits="userSpaceOnUse"
       y2="2.4395995"
       x2="25.368185"
       y1="43.542542"
       x1="33.111675"
       id="linearGradient8118"
       xlink:href="#linearGradient8112"
       inkscape:collect="always" />
    <linearGradient
       gradientTransform="matrix(1,0,0,0.148144,0,40.8891)"
       y2="40"
       x2="21.875"
       y1="48.000977"
       x1="21.875"
       gradientUnits="userSpaceOnUse"
       id="linearGradient19872"
       xlink:href="#linearGradient2804"
       inkscape:collect="always" />
    <radialGradient
       r="5"
       fy="44"
       fx="1"
       cy="44"
       cx="1"
       gradientTransform="matrix(2,0,0,0.8,21.2275,10.5291)"
       gradientUnits="userSpaceOnUse"
       id="radialGradient19870"
       xlink:href="#linearGradient2781"
       inkscape:collect="always" />
    <radialGradient
       r="5"
       fy="44"
       fx="1"
       cy="44"
       cx="1"
       gradientTransform="matrix(2,0,0,0.8,-25.2401,-80.9291)"
       gradientUnits="userSpaceOnUse"
       id="radialGradient19868"
       xlink:href="#linearGradient2781"
       inkscape:collect="always" />
    <radialGradient
       gradientUnits="userSpaceOnUse"
       gradientTransform="matrix(1,0,0,0.988712,-0.422072,11.2351)"
       r="20.928947"
       fy="23.145077"
       fx="73.570084"
       cy="23.145077"
       cx="73.570084"
       id="radialGradient19858"
       xlink:href="#linearGradient2781"
       inkscape:collect="always" />
    <linearGradient
       gradientTransform="translate(-0.860148,-1.86342)"
       gradientUnits="userSpaceOnUse"
       y2="52.45615"
       x2="77.480881"
       y1="16.647184"
       x1="77.297218"
       id="linearGradient15953"
       xlink:href="#linearGradient2782"
       inkscape:collect="always" />
    <linearGradient
       y2="15.676654"
       x2="8.1771841"
       y1="5.7791729"
       x1="8.1771841"
       gradientTransform="matrix(3.30877,0,0,3.35829,-5.96997,-6.33588)"
       gradientUnits="userSpaceOnUse"
       id="linearGradient8141"
       xlink:href="#linearGradient5106"
       inkscape:collect="always" />
    <linearGradient
       y2="40"
       x2="21.875"
       y1="48.000977"
       x1="21.875"
       gradientUnits="userSpaceOnUse"
       id="linearGradient2831"
       xlink:href="#linearGradient2804"
       inkscape:collect="always" />
    <radialGradient
       r="5"
       fy="44"
       fx="1"
       cy="44"
       cx="1"
       gradientTransform="matrix(2,0,0,0.8,36,8.8)"
       gradientUnits="userSpaceOnUse"
       id="radialGradient2829"
       xlink:href="#linearGradient2781"
       inkscape:collect="always" />
    <radialGradient
       r="5"
       fy="44"
       fx="1"
       cy="44"
       cx="1"
       gradientTransform="matrix(2,0,0,0.8,-13,-79.2)"
       gradientUnits="userSpaceOnUse"
       id="radialGradient2827"
       xlink:href="#linearGradient2781"
       inkscape:collect="always" />
    <linearGradient
       gradientUnits="userSpaceOnUse"
       y2="55.265625"
       x2="29.03125"
       y1="23.265625"
       x1="26.0625"
       id="linearGradient2788"
       xlink:href="#linearGradient2782"
       inkscape:collect="always" />
    <linearGradient
       y2="15.676654"
       x2="8.1771841"
       y1="5.7791729"
       x1="8.1771841"
       gradientTransform="matrix(3.13717,0,0,3.18412,-1.60668,-4.86106)"
       gradientUnits="userSpaceOnUse"
       id="linearGradient2780"
       xlink:href="#linearGradient5106"
       inkscape:collect="always" />
    <linearGradient
       id="linearGradient5106">
      <stop
         id="stop5108"
         offset="0"
         style="stop-color: rgb(114, 159, 207); stop-opacity: 1;" />
      <stop
         id="stop5110"
         offset="1"
         style="stop-color: rgb(56, 110, 166); stop-opacity: 1;" />
    </linearGradient>
    <linearGradient
       id="linearGradient2782"
       inkscape:collect="always">
      <stop
         id="stop2784"
         offset="0"
         style="stop-color: white; stop-opacity: 1;" />
      <stop
         id="stop2786"
         offset="1"
         style="stop-color: white; stop-opacity: 0;" />
    </linearGradient>
    <linearGradient
       id="linearGradient2781"
       inkscape:collect="always">
      <stop
         id="stop2783"
         offset="0"
         style="stop-color: black; stop-opacity: 1;" />
      <stop
         id="stop2785"
         offset="1"
         style="stop-color: black; stop-opacity: 0;" />
    </linearGradient>
    <linearGradient
       id="linearGradient2804">
      <stop
         id="stop2806"
         offset="0"
         style="stop-color: black; stop-opacity: 0;" />
      <stop
         style="stop-color: black; stop-opacity: 1;"
         offset="0.5"
         id="stop2812" />
      <stop
         id="stop2808"
         offset="1"
         style="stop-color: black; stop-opacity: 0;" />
    </linearGradient>
    <linearGradient
       id="linearGradient7100">
      <stop
         id="stop7102"
         offset="0"
         style="stop-color: rgb(0, 0, 0); stop-opacity: 1;" />
      <stop
         id="stop7104"
         offset="1"
         style="stop-color: rgb(255, 255, 255); stop-opacity: 1;" />
    </linearGradient>
    <linearGradient
       id="linearGradient7108">
      <stop
         id="stop7110"
         offset="0"
         style="stop-color: rgb(0, 0, 0); stop-opacity: 1;" />
      <stop
         id="stop7112"
         offset="1"
         style="stop-color: rgb(255, 255, 255); stop-opacity: 1;" />
    </linearGradient>
    <linearGradient
       id="linearGradient8112"
       inkscape:collect="always">
      <stop
         id="stop8114"
         offset="0"
         style="stop-color: rgb(255, 255, 255); stop-opacity: 1;" />
      <stop
         id="stop8116"
         offset="1"
         style="stop-color: rgb(255, 255, 255); stop-opacity: 0;" />
    </linearGradient>
    <inkscape:perspective
       id="perspective2671"
       inkscape:persp3d-origin="24 : 16 : 1"
       inkscape:vp_z="48 : 24 : 1"
       inkscape:vp_y="0 : 1000 : 0"
       inkscape:vp_x="0 : 24 : 1"
       sodipodi:type="inkscape:persp3d" />
    <linearGradient
       inkscape:collect="always"
       xlink:href="#linearGradient8112"
       id="linearGradient3531"
       gradientUnits="userSpaceOnUse"
       x1="33.111675"
       y1="43.542542"
       x2="25.368185"
       y2="2.4395995" />
    <linearGradient
       inkscape:collect="always"
       xlink:href="#linearGradient8112"
       id="linearGradient3533"
       gradientUnits="userSpaceOnUse"
       x1="29.854376"
       y1="50.395214"
       x2="21.795116"
       y2="15.465387" />
    <filter
       inkscape:collect="always"
       id="filter3935"
       x="-0.15220326"
       width="1.3044065"
       y="-0.60546881"
       height="2.2109375">
      <feGaussianBlur
         inkscape:collect="always"
         stdDeviation="8.2471965"
         id="feGaussianBlur3937" />
    </filter>
    <filter
       inkscape:collect="always"
       id="filter3939"
       x="-0.1657311"
       width="1.3314621"
       y="-0.60546881"
       height="2.2109375">
      <feGaussianBlur
         inkscape:collect="always"
         stdDeviation="8.2471965"
         id="feGaussianBlur3941" />
    </filter>
  </defs>
  <sodipodi:namedview
     id="base"
     pagecolor="#ffffff"
     bordercolor="#666666"
     borderopacity="1.0"
     inkscape:pageopacity="0.0"
     inkscape:pageshadow="2"
     inkscape:zoom="0.79354454"
     inkscape:cx="229.8226"
     inkscape:cy="44.165558"
     inkscape:document-units="px"
     inkscape:current-layer="svg2"
     showgrid="false"
     width="1024px"
     borderlayer="true"
     inkscape:window-width="1680"
     inkscape:window-height="987"
     inkscape:window-x="0"
     inkscape:window-y="0"
     showguides="true"
     inkscape:guide-bbox="true" />
  <metadata
     id="metadata7">
    <rdf:RDF>
      <cc:Work
         rdf:about="">
        <dc:format>image/svg+xml</dc:format>
        <dc:type
           rdf:resource="http://purl.org/dc/dcmitype/StillImage" />
      </cc:Work>
    </rdf:RDF>
  </metadata>
  <g
     style="opacity:1"
     inkscape:label="Layer 1"
     id="g2712"
     transform="matrix(3.4133613,0,0,3.4133613,8.8201851,10.571359)">
    <path
       id="path12028"
       d="M 27.865252,43.710325 C 26.7523,43.559574 25.528128,43.260721 24.984834,43.007141 C 23.729072,42.421025 22.527464,41.588657 22.099265,41.008269 C 21.987069,40.856188 21.708587,40.584686 21.48041,40.40493 C 20.573319,39.6903 20.043433,38.937914 18.962163,36.829248 C 18.839315,36.589669 18.455491,34.649803 18.314215,33.554466 C 18.202578,32.688891 18.211551,30.95955 18.331798,30.167998 C 18.481007,29.185828 18.785785,27.894123 18.933434,27.618255 C 19.057686,27.386074 19.366431,26.386017 19.462397,25.904819 C 19.498656,25.723021 19.579991,25.510531 19.643144,25.432618 C 19.706285,25.354706 19.83661,25.014721 19.932745,24.677098 C 20.02888,24.339474 20.252974,23.768981 20.430743,23.409334 C 20.828873,22.603849 21.015979,22.003695 21.017319,21.52789 C 21.017891,21.328116 21.088172,20.924475 21.173512,20.630911 C 21.382481,19.912098 21.301926,17.888042 21.033875,17.12189 C 20.83029,16.540022 20.333125,15.562835 19.810743,14.717814 C 18.728406,12.966979 15.634741,10.812832 13.793677,10.528073 C 13.087934,10.418916 10.752098,10.539702 9.7480274,10.737275 C 8.8884056,10.906423 8.0786986,11.282622 7.6635966,11.705726 C 6.5988686,12.790955 5.9766196,13.524099 5.7314576,13.982182 C 5.3778186,14.642977 5.1585236,15.656594 5.0983486,16.908603 C 5.0299796,18.331422 5.0894266,18.628854 5.7204416,20.020519 C 6.2529686,21.194971 7.6850556,22.381515 9.2605514,22.953637 C 9.9959594,23.220692 10.275976,23.270228 11.338232,23.321185 C 12.803145,23.391458 13.427501,23.285267 14.084124,22.854166 C 14.339911,22.686228 14.740447,22.436504 14.974178,22.299224 C 16.04109,21.672611 16.59834,20.490871 16.593801,18.864534 C 16.590992,17.85647 16.231747,16.94564 15.622945,16.403001 C 15.244375,16.06557 13.908722,15.261921 13.520606,15.138043 C 12.844423,14.922222 11.972109,15.059121 11.04127,15.527141 C 10.588128,15.754977 10.136858,16.05164 10.038435,16.186392 C 9.9400244,16.321145 9.7171274,16.809872 9.5431294,17.272453 C 9.3691194,17.735035 9.1918574,18.113511 9.1492134,18.113511 C 8.9800146,18.113511 9.0234006,17.379877 9.2259054,16.816439 C 9.5155974,16.010463 9.8065384,15.591111 10.380343,15.152533 C 11.027198,14.658109 11.6614,14.413642 12.518733,14.328241 C 13.633427,14.217204 13.808009,14.248438 14.77218,14.7314 C 15.893897,15.293269 16.232905,15.624684 16.786669,16.700746 C 17.4477,17.985239 17.528671,18.338725 17.382115,19.300194 C 17.215556,20.392855 16.84107,21.496969 16.405147,22.18059 C 16.00768,22.803906 15.266679,23.371713 13.935344,24.073129 C 12.980497,24.576186 12.654469,24.66401 11.385454,24.759991 C 9.9967144,24.865029 9.1871364,24.774851 8.1272736,24.397069 C 7.6597996,24.230438 7.0783856,24.0372 6.8352526,23.967655 C 6.5111746,23.874948 6.0919106,23.587263 5.2641526,22.889584 C 3.8434836,21.692172 3.6152156,21.305014 3.3391006,19.624553 C 3.2366846,19.001248 3.1394956,18.185884 3.1231226,17.812633 C 3.1067486,17.439382 3.0668616,17.091114 3.0344656,17.038703 C 2.9667076,16.929077 3.1239416,15.030228 3.2817346,14.052588 C 3.4118126,13.246633 3.4713126,13.124085 4.4009416,11.747422 C 4.9526506,10.930431 5.3154056,10.507273 5.8309736,10.079278 C 7.4980266,8.6954081 8.5871266,8.1216071 10.480314,7.6297481 C 11.792961,7.2887151 11.796408,7.2883641 13.407954,7.3311771 C 15.112281,7.3764561 16.019463,7.4829001 16.632101,7.7094841 C 20.775083,9.2417481 22.409311,10.583236 24.531964,14.194247 C 25.210748,15.348979 25.858774,16.174444 27.030067,17.376348 C 27.892003,18.260815 28.167845,18.482637 28.718319,18.733996 C 29.605511,19.139111 30.64337,19.286629 32.634775,19.290663 C 34.531267,19.294506 35.24891,19.150897 36.075667,18.602099 C 36.338608,18.427562 36.7657,18.19103 37.024765,18.076472 C 37.28383,17.961914 37.581312,17.791309 37.685848,17.697351 C 37.790372,17.603392 38.109638,17.403791 38.395324,17.253795 C 39.051349,16.909346 39.816994,16.142007 40.096594,15.548757 C 40.433327,14.834256 40.948452,13.985557 41.233995,13.674826 C 41.428645,13.463014 41.518342,13.233704 41.589377,12.766272 C 41.641645,12.422394 41.773545,11.966296 41.882503,11.752721 C 42.156315,11.216012 42.248926,10.082025 42.05031,9.6979491 C 41.969391,9.5414771 41.842277,9.0908641 41.767835,8.6965901 C 41.503555,7.2969551 40.118924,5.6645361 38.529903,4.8791951 C 37.953575,4.5943581 37.709154,4.5337141 36.8088,4.4521561 C 34.937642,4.2826601 33.567863,4.5714141 32.488895,5.3628081 C 31.469243,6.1106951 31.029002,6.4796321 31.029002,6.5862401 C 31.029002,6.6979181 30.559187,7.2467141 30.40951,7.3098651 C 30.202167,7.3973561 29.80128,8.0635601 29.80128,8.3206561 C 29.80128,8.4733441 29.718189,8.7860961 29.616644,9.0156601 C 29.229425,9.8910421 29.297313,10.600062 29.909067,12.069345 C 30.257088,12.905204 30.363692,13.100337 30.708774,13.533167 C 31.17141,14.11343 31.65778,14.382349 32.519301,14.534219 C 33.521785,14.710935 34.02371,14.698182 34.658237,14.479872 C 35.912815,14.048236 36.786223,13.311974 37.237713,12.305445 C 37.440829,11.852624 37.465838,11.682812 37.432753,10.981042 C 37.399486,10.275647 37.354878,10.106235 37.072143,9.6116611 C 36.894673,9.3012421 36.584537,8.8681371 36.382929,8.6492051 C 36.181322,8.4302731 36.031137,8.2068471 36.049188,8.1527011 C 36.101548,7.9956171 37.051361,8.6882651 37.35121,9.1022011 C 37.811076,9.7370281 37.958829,10.374588 37.891436,11.433409 C 37.817449,12.595841 37.500159,13.275339 36.602731,14.193221 C 35.910331,14.901399 35.214719,15.241951 34.054026,15.440988 C 33.109323,15.602985 31.909796,15.382364 31.152383,14.907313 C 30.234186,14.331414 29.662123,13.741134 29.14043,12.83131 C 28.711855,12.083857 28.6313,11.852613 28.4331,10.800805 C 28.196977,9.5477181 28.197445,8.5249951 28.434284,8.2445221 C 28.500077,8.1666091 28.603924,7.8580731 28.665062,7.5588871 C 28.7262,7.2597001 28.871638,6.8984671 28.988269,6.7561461 C 29.1049,6.6138251 29.336693,6.2107911 29.503381,5.8605141 C 29.748582,5.3452151 29.87805,5.1871101 30.181618,5.0322441 C 30.38796,4.9269711 30.556794,4.7985181 30.556794,4.7467911 C 30.556794,4.6950641 30.702232,4.5833921 30.879975,4.4986281 C 31.057731,4.4138641 31.223899,4.2652081 31.249246,4.1682781 C 31.27644,4.0642731 31.521368,3.8929111 31.846851,3.7501641 C 32.150199,3.6171301 32.629676,3.3999221 32.912385,3.2674821 C 33.19508,3.1350401 33.9813,2.8894491 34.659524,2.7217221 C 35.832001,2.4317641 35.948411,2.4200741 37.025936,2.4840731 C 38.108012,2.5483421 38.184353,2.5667871 38.715293,2.8922691 C 39.021124,3.0797561 39.42486,3.2828591 39.612474,3.3436111 C 39.800087,3.4043621 40.285847,3.6925841 40.691949,3.9841041 C 41.098051,4.2756221 41.572392,4.6000701 41.746039,4.7050981 C 41.919685,4.8101241 42.342044,5.1833271 42.684628,5.5344371 C 43.3956,6.2631311 44.141607,7.6218181 44.387069,8.6350591 C 44.467155,8.9656541 44.617483,9.5336291 44.721122,9.8972241 C 44.882348,10.462899 44.901336,10.728671 44.852618,11.738805 C 44.700912,14.884907 43.631008,17.306371 41.559062,19.193025 C 41.29936,19.429507 40.778291,19.9297 40.401139,20.304562 C 39.637951,21.063116 38.727336,21.689666 37.592588,22.237003 C 37.177044,22.437432 36.600937,22.72534 36.312324,22.8768 C 35.430242,23.339718 34.081181,23.543817 31.903463,23.543817 C 29.773422,23.543817 29.536922,23.576104 27.091686,24.200745 C 26.216952,24.424199 25.929679,24.545741 25.424828,24.906 C 24.571045,25.515246 23.585975,26.784368 22.816987,28.265822 C 22.695661,28.49956 22.520428,28.775798 22.427583,28.879682 C 22.11984,29.224044 21.881961,29.930261 21.86547,30.548536 C 21.824855,32.071311 21.887462,34.772345 21.971268,35.112728 C 22.101229,35.640558 22.343309,36.195772 22.588927,36.529329 C 22.907425,36.961845 23.439757,37.934425 23.563931,38.310676 C 23.630596,38.512654 23.854546,38.797292 24.1249,39.023645 C 24.372403,39.230868 24.696754,39.576241 24.845677,39.791138 C 25.169352,40.258195 26.339774,40.892787 27.040965,40.981404 C 27.286556,41.012442 27.574194,41.091634 27.680161,41.157384 C 27.786128,41.223135 28.10486,41.324977 28.388466,41.383695 C 29.003381,41.511013 30.395529,41.336387 31.198773,41.031183 C 31.692582,40.843549 32.857594,40.162642 33.477932,39.699101 C 33.94287,39.351679 34.57633,38.452154 34.762539,37.874956 C 34.850481,37.602339 34.974395,37.294294 35.037886,37.190409 C 35.364969,36.655305 35.441804,35.566903 35.285559,33.682166 C 35.225695,32.960096 35.148418,32.610822 34.972119,32.265565 C 34.843432,32.013533 34.639808,31.602477 34.519627,31.352108 C 34.151734,30.585679 32.38047,29.303583 31.669225,29.288892 C 31.550838,29.286447 31.168965,29.22516 30.820606,29.152697 C 30.151693,29.013554 29.175258,29.083726 28.771172,29.299983 C 28.274384,29.565859 27.639896,30.041136 27.233625,30.451716 C 26.872612,30.816565 26.746266,31.040395 26.549184,31.664268 C 26.322945,32.380418 26.312905,32.491835 26.39225,33.405577 C 26.48923,34.522389 26.679588,35.039064 27.210697,35.626937 C 27.634304,36.095822 27.995148,36.292776 28.951178,36.576927 C 29.645451,36.783278 30.301826,36.796757 30.91094,36.617169 C 31.268637,36.511709 31.146895,36.726166 30.746593,36.906676 C 30.18115,37.161656 28.845523,37.064157 27.964,36.703554 C 27.082257,36.342858 26.314309,35.631042 25.905567,34.795574 C 25.611258,34.194007 25.598695,34.121929 25.598695,33.035045 C 25.598695,31.954157 25.612168,31.875568 25.890169,31.335124 C 26.050472,31.023471 26.279663,30.577356 26.399468,30.343755 C 26.519272,30.110155 26.866968,29.678487 27.17211,29.384494 C 27.622534,28.950554 27.864367,28.802417 28.457173,28.597326 C 30.089034,28.032763 32.075158,28.179157 33.295559,28.953952 C 34.411579,29.662477 35.389965,30.486749 35.762175,31.032035 C 36.445914,32.033711 36.940192,33.217899 37.012124,34.026667 C 37.046783,34.416233 37.113656,35.107907 37.160748,35.563721 C 37.241459,36.345108 37.227712,36.466556 36.920021,37.688623 C 36.439515,39.597133 36.176679,40.104484 35.243331,40.925054 C 34.821336,41.29607 34.317876,41.680889 34.12454,41.78021 C 33.931191,41.879531 33.633709,42.080659 33.463457,42.227162 C 33.001835,42.624375 32.125853,43.092915 31.844848,43.092915 C 31.708878,43.092915 31.331569,43.194307 31.006373,43.31823 C 30.363991,43.563037 29.171617,43.855361 28.890586,43.836945 C 28.794126,43.830625 28.332726,43.773645 27.865252,43.710325 z"
       style="opacity:0.50211002;fill:none;fill-opacity:1;fill-rule:nonzero;stroke:#002568;stroke-width:1.5;stroke-linecap:butt;stroke-linejoin:round;marker:none;stroke-miterlimit:4;stroke-dasharray:none;stroke-dashoffset:0;stroke-opacity:1;visibility:visible;display:inline;overflow:visible" />
    <path
       id="path2243"
       d="M 27.865254,43.710325 C 26.752302,43.559574 25.52813,43.260721 24.984836,43.007141 C 23.729074,42.421025 22.527466,41.588657 22.099267,41.008269 C 21.987071,40.856188 21.708589,40.584686 21.480412,40.40493 C 20.573321,39.6903 20.043435,38.937914 18.962165,36.829248 C 18.839317,36.589669 18.455493,34.649803 18.314217,33.554466 C 18.20258,32.688891 18.211553,30.95955 18.3318,30.167998 C 18.481009,29.185828 18.785787,27.894123 18.933436,27.618255 C 19.057688,27.386074 19.366433,26.386017 19.462399,25.904819 C 19.498658,25.723021 19.579993,25.510531 19.643146,25.432618 C 19.706287,25.354706 19.836612,25.014721 19.932747,24.677098 C 20.028882,24.339474 20.252976,23.768981 20.430745,23.409334 C 20.828875,22.603849 21.015981,22.003695 21.017321,21.52789 C 21.017893,21.328116 21.088174,20.924475 21.173514,20.630911 C 21.382483,19.912098 21.301928,17.888042 21.033877,17.12189 C 20.830292,16.540022 20.333127,15.562835 19.810745,14.717814 C 18.728408,12.966978 15.634743,10.812831 13.793679,10.528072 C 13.087936,10.418915 10.7521,10.539701 9.7480294,10.737274 C 8.8884076,10.906422 8.0787006,11.282621 7.6635986,11.705725 C 6.5988706,12.790954 5.9766216,13.524098 5.7314596,13.982182 C 5.3778206,14.642977 5.1585256,15.656594 5.0983506,16.908603 C 5.0299816,18.331422 5.0894286,18.628854 5.7204436,20.020519 C 6.2529706,21.194971 7.6850576,22.381515 9.2605534,22.953637 C 9.9959614,23.220692 10.275978,23.270228 11.338234,23.321185 C 12.803147,23.391458 13.427503,23.285267 14.084126,22.854166 C 14.339913,22.686228 14.740449,22.436504 14.97418,22.299224 C 16.041092,21.672611 16.598342,20.490871 16.593803,18.864534 C 16.590994,17.85647 16.231749,16.94564 15.622947,16.403001 C 15.244377,16.06557 13.908724,15.261921 13.520608,15.138043 C 12.844425,14.922222 11.972111,15.059121 11.041272,15.527141 C 10.58813,15.754977 10.13686,16.05164 10.038437,16.186392 C 9.9400264,16.321145 9.7171294,16.809872 9.5431314,17.272453 C 9.3691214,17.735035 9.1918594,18.113511 9.1492154,18.113511 C 8.9800166,18.113511 9.0234026,17.379877 9.2259074,16.816439 C 9.5155994,16.010463 9.8065404,15.591111 10.380345,15.152533 C 11.0272,14.658109 11.661402,14.413642 12.518735,14.328241 C 13.633429,14.217204 13.808011,14.248438 14.772182,14.7314 C 15.893899,15.293269 16.232907,15.624684 16.786671,16.700746 C 17.447702,17.985239 17.528673,18.338725 17.382117,19.300194 C 17.215558,20.392855 16.841072,21.496969 16.405149,22.18059 C 16.007682,22.803906 15.266681,23.371713 13.935346,24.073129 C 12.980499,24.576186 12.654471,24.66401 11.385456,24.759991 C 9.9967164,24.865029 9.1871384,24.774851 8.1272756,24.397069 C 7.6598016,24.230438 7.0783876,24.0372 6.8352546,23.967655 C 6.5111766,23.874948 6.0919126,23.587263 5.2641546,22.889584 C 3.8434856,21.692172 3.6152176,21.305014 3.3391026,19.624553 C 3.2366866,19.001248 3.1394976,18.185884 3.1231246,17.812633 C 3.1067506,17.439382 3.0668636,17.091114 3.0344676,17.038703 C 2.9667096,16.929077 3.1239436,15.030228 3.2817366,14.052588 C 3.4118146,13.246632 3.4713146,13.124084 4.4009436,11.747421 C 4.9526526,10.93043 5.3154076,10.507272 5.8309756,10.079277 C 7.4980286,8.6954071 8.5871286,8.1216061 10.480316,7.6297471 C 11.792963,7.2887141 11.79641,7.2883631 13.407956,7.3311761 C 15.112283,7.3764551 16.019465,7.4828991 16.632103,7.7094831 C 20.775085,9.2417471 22.409313,10.583235 24.531966,14.194247 C 25.21075,15.348979 25.858776,16.174444 27.030069,17.376348 C 27.892005,18.260815 28.167847,18.482637 28.718321,18.733996 C 29.605513,19.139111 30.643372,19.286629 32.634777,19.290663 C 34.531269,19.294506 35.248912,19.150897 36.075669,18.602099 C 36.33861,18.427562 36.765702,18.19103 37.024767,18.076472 C 37.283832,17.961914 37.581315,17.791309 37.685845,17.697351 C 37.790375,17.603392 38.109635,17.403791 38.395325,17.253795 C 39.051355,16.909346 39.816995,16.142007 40.096595,15.548757 C 40.433325,14.834256 40.948455,13.985557 41.233995,13.674825 C 41.428645,13.463013 41.518345,13.233703 41.589375,12.766271 C 41.641645,12.422393 41.773545,11.966295 41.882505,11.75272 C 42.156315,11.216011 42.248925,10.082024 42.050315,9.6979481 C 41.969395,9.5414761 41.842275,9.0908631 41.767835,8.6965891 C 41.503555,7.2969541 40.118925,5.6645351 38.529905,4.8791941 C 37.953575,4.5943571 37.709155,4.5337131 36.808802,4.4521551 C 34.937644,4.2826591 33.567865,4.5714131 32.488897,5.3628071 C 31.469245,6.1106941 31.029004,6.4796311 31.029004,6.5862391 C 31.029004,6.6979171 30.559189,7.2467131 30.409512,7.3098641 C 30.202169,7.3973551 29.801282,8.0635591 29.801282,8.3206551 C 29.801282,8.4733431 29.718191,8.7860951 29.616646,9.0156591 C 29.229427,9.8910411 29.297315,10.600061 29.909069,12.069344 C 30.25709,12.905203 30.363694,13.100336 30.708776,13.533166 C 31.171412,14.11343 31.657782,14.382349 32.519303,14.534219 C 33.521787,14.710935 34.023712,14.698182 34.658239,14.479872 C 35.912817,14.048236 36.786225,13.311973 37.237715,12.305444 C 37.440831,11.852623 37.46584,11.682811 37.432755,10.981041 C 37.399488,10.275646 37.35488,10.106234 37.072145,9.6116601 C 36.894675,9.3012411 36.584539,8.8681361 36.382931,8.6492041 C 36.181324,8.4302721 36.031139,8.2068461 36.04919,8.1527001 C 36.10155,7.9956161 37.051363,8.6882641 37.351212,9.1022001 C 37.811075,9.7370271 37.958835,10.374587 37.891435,11.433408 C 37.817455,12.59584 37.500161,13.275338 36.602733,14.193221 C 35.910333,14.901399 35.214721,15.241951 34.054028,15.440988 C 33.109325,15.602985 31.909798,15.382364 31.152385,14.907313 C 30.234188,14.331414 29.662125,13.741133 29.140432,12.831309 C 28.711857,12.083856 28.631302,11.852612 28.433102,10.800804 C 28.196979,9.5477171 28.197447,8.5249941 28.434286,8.2445211 C 28.500079,8.1666081 28.603926,7.8580721 28.665064,7.5588861 C 28.726202,7.2596991 28.87164,6.8984661 28.988271,6.7561451 C 29.104902,6.6138241 29.336695,6.2107901 29.503383,5.8605131 C 29.748584,5.3452141 29.878052,5.1871091 30.18162,5.0322431 C 30.387962,4.9269701 30.556796,4.7985171 30.556796,4.7467901 C 30.556796,4.6950631 30.702234,4.5833911 30.879977,4.4986271 C 31.057733,4.4138631 31.223901,4.2652071 31.249248,4.1682771 C 31.276442,4.0642721 31.52137,3.8929101 31.846853,3.7501631 C 32.150201,3.6171291 32.629678,3.3999221 32.912387,3.2674811 C 33.195082,3.1350401 33.981302,2.8894481 34.659526,2.7217211 C 35.832003,2.4317631 35.948413,2.4200741 37.025938,2.4840731 C 38.108015,2.5483411 38.184355,2.5667871 38.715295,2.8922681 C 39.021125,3.0797561 39.424865,3.2828591 39.612475,3.3436101 C 39.800085,3.4043621 40.285845,3.6925831 40.691955,3.9841031 C 41.098055,4.2756211 41.572395,4.6000691 41.746045,4.7050971 C 41.919685,4.8101231 42.342045,5.1833261 42.684625,5.5344361 C 43.395605,6.2631301 44.141605,7.6218171 44.387075,8.6350581 C 44.467155,8.9656531 44.617485,9.5336281 44.721125,9.8972231 C 44.882345,10.462898 44.901335,10.72867 44.852615,11.738804 C 44.700915,14.884907 43.631005,17.306371 41.559065,19.193025 C 41.299365,19.429507 40.778295,19.9297 40.401145,20.304562 C 39.637955,21.063116 38.727335,21.689666 37.592585,22.237003 C 37.177046,22.437432 36.600939,22.72534 36.312326,22.8768 C 35.430244,23.339718 34.081183,23.543817 31.903465,23.543817 C 29.773424,23.543817 29.536924,23.576104 27.091688,24.200745 C 26.216954,24.424199 25.929681,24.545741 25.42483,24.906 C 24.571047,25.515246 23.585977,26.784368 22.816989,28.265822 C 22.695663,28.49956 22.52043,28.775798 22.427585,28.879682 C 22.119842,29.224044 21.881963,29.930261 21.865472,30.548536 C 21.824857,32.071311 21.887464,34.772345 21.97127,35.112728 C 22.101231,35.640558 22.343311,36.195772 22.588929,36.529329 C 22.907427,36.961845 23.439759,37.934425 23.563933,38.310676 C 23.630598,38.512654 23.854548,38.797292 24.124902,39.023645 C 24.372405,39.230868 24.696756,39.576241 24.845679,39.791138 C 25.169354,40.258195 26.339776,40.892787 27.040967,40.981404 C 27.286558,41.012442 27.574196,41.091634 27.680163,41.157384 C 27.78613,41.223135 28.104862,41.324977 28.388468,41.383695 C 29.003383,41.511013 30.395531,41.336387 31.198775,41.031183 C 31.692584,40.843549 32.857596,40.162642 33.477934,39.699101 C 33.942872,39.351679 34.576332,38.452154 34.762541,37.874956 C 34.850483,37.602339 34.974397,37.294294 35.037888,37.190409 C 35.364971,36.655305 35.441806,35.566903 35.285561,33.682166 C 35.225697,32.960096 35.14842,32.610822 34.972121,32.265565 C 34.843434,32.013533 34.63981,31.602477 34.519629,31.352108 C 34.151736,30.585679 32.380472,29.303583 31.669227,29.288892 C 31.55084,29.286447 31.168967,29.22516 30.820608,29.152697 C 30.151695,29.013554 29.17526,29.083726 28.771174,29.299983 C 28.274386,29.565859 27.639898,30.041136 27.233627,30.451716 C 26.872614,30.816565 26.746268,31.040395 26.549186,31.664268 C 26.322947,32.380418 26.312907,32.491835 26.392252,33.405577 C 26.489232,34.522389 26.67959,35.039064 27.210699,35.626937 C 27.634306,36.095822 27.99515,36.292776 28.95118,36.576927 C 29.645453,36.783278 30.301828,36.796757 30.910942,36.617169 C 31.268639,36.511709 31.146897,36.726166 30.746595,36.906676 C 30.181152,37.161656 28.845525,37.064157 27.964002,36.703554 C 27.082259,36.342858 26.314311,35.631042 25.905569,34.795574 C 25.61126,34.194007 25.598697,34.121929 25.598697,33.035045 C 25.598697,31.954157 25.61217,31.875568 25.890171,31.335124 C 26.050474,31.023471 26.279665,30.577356 26.39947,30.343755 C 26.519274,30.110155 26.86697,29.678487 27.172112,29.384494 C 27.622536,28.950554 27.864369,28.802417 28.457175,28.597326 C 30.089036,28.032763 32.07516,28.179157 33.295561,28.953952 C 34.411581,29.662477 35.389967,30.486749 35.762177,31.032035 C 36.445916,32.033711 36.940194,33.217899 37.012126,34.026667 C 37.046785,34.416233 37.113658,35.107907 37.16075,35.563721 C 37.241461,36.345108 37.227714,36.466556 36.920023,37.688623 C 36.439517,39.597133 36.176681,40.104484 35.243333,40.925054 C 34.821338,41.29607 34.317878,41.680889 34.124542,41.78021 C 33.931193,41.879531 33.633711,42.080659 33.463459,42.227162 C 33.001837,42.624375 32.125855,43.092915 31.84485,43.092915 C 31.70888,43.092915 31.331571,43.194307 31.006375,43.31823 C 30.363993,43.563037 29.171619,43.855361 28.890588,43.836945 C 28.794128,43.830625 28.332728,43.773645 27.865254,43.710325 z"
       style="opacity:1;fill:#004db1;fill-opacity:1;fill-rule:nonzero;stroke:none;stroke-width:1;stroke-linecap:butt;stroke-linejoin:miter;marker:none;stroke-miterlimit:0;stroke-dasharray:none;stroke-dashoffset:0;stroke-opacity:1;visibility:visible;display:inline;overflow:visible" />
    <path
       id="path7116"
       d="M 20.15625,24.125 L 41.46875,19.28125 C 41.493396,19.258471 41.541159,19.206933 41.5625,19.1875 C 43.63444,17.300846 44.69205,14.896103 44.84375,11.75 C 44.89247,10.739866 44.879968,10.471925 44.71875,9.90625 C 44.61511,9.542655 44.455081,8.9555947 44.375,8.625 C 44.12953,7.611759 43.398481,6.2599439 42.6875,5.53125 C 42.34492,5.18014 41.923641,4.8237759 41.75,4.71875 C 41.57635,4.613722 41.093599,4.2602679 40.6875,3.96875 C 40.28139,3.67723 39.812609,3.4045021 39.625,3.34375 C 39.43739,3.282999 39.024581,3.0937379 38.71875,2.90625 C 38.18781,2.580769 38.113329,2.5330179 37.03125,2.46875 C 35.953725,2.404751 35.828726,2.4287919 34.65625,2.71875 C 33.978026,2.886477 33.188944,3.148809 32.90625,3.28125 C 32.623541,3.413691 32.147098,3.616966 31.84375,3.75 C 31.518267,3.892747 31.277193,4.0522448 31.25,4.15625 C 31.224653,4.25318 31.052757,4.4152359 30.875,4.5 C 30.697257,4.584764 30.562501,4.6982732 30.5625,4.75 C 30.5625,4.801727 30.393842,4.9259768 30.1875,5.03125 C 29.883932,5.186116 29.7452,5.3597009 29.5,5.875 C 29.333312,6.225277 29.11663,6.6076791 29,6.75 C 28.883369,6.892321 28.717388,7.263313 28.65625,7.5625 C 28.595112,7.861686 28.503293,8.172087 28.4375,8.25 C 28.200661,8.530473 28.201377,9.559413 28.4375,10.8125 C 28.6357,11.864308 28.696425,12.096297 29.125,12.84375 C 29.646693,13.753574 30.238052,14.330351 31.15625,14.90625 C 31.913663,15.381301 33.117797,15.599497 34.0625,15.4375 C 35.223193,15.238463 35.901349,14.895678 36.59375,14.1875 C 37.491178,13.269617 37.832271,12.599932 37.90625,11.4375 C 37.97365,10.378679 37.803613,9.7285766 37.34375,9.09375 C 37.043901,8.679814 36.114859,7.9991657 36.0625,8.15625 C 36.044449,8.210396 36.173393,8.4373178 36.375,8.65625 C 36.576608,8.875182 36.885031,9.3145811 37.0625,9.625 C 37.345235,10.119574 37.404233,10.263355 37.4375,10.96875 C 37.470585,11.67052 37.453114,11.859679 37.25,12.3125 C 36.79851,13.319029 35.91083,14.037114 34.65625,14.46875 C 34.021723,14.68706 33.533735,14.707966 32.53125,14.53125 C 31.669729,14.37938 31.181386,14.111514 30.71875,13.53125 C 30.373668,13.09842 30.254271,12.898359 29.90625,12.0625 C 29.294496,10.593217 29.237781,9.9066318 29.625,9.03125 C 29.726545,8.801686 29.812499,8.4651882 29.8125,8.3125 C 29.8125,8.055404 30.198907,7.3999911 30.40625,7.3125 C 30.555927,7.249349 31.031251,6.7054278 31.03125,6.59375 C 31.03125,6.487142 31.48035,6.1228868 32.5,5.375 C 33.578968,4.583606 34.94134,4.268004 36.8125,4.4375 C 37.712853,4.519058 37.954922,4.5901628 38.53125,4.875 C 40.12027,5.660341 41.516971,7.2878646 41.78125,8.6875 C 41.85569,9.081774 41.981579,9.5310276 42.0625,9.6875 C 42.26111,10.071576 42.148811,11.213291 41.875,11.75 C 41.76604,11.963575 41.64602,12.437372 41.59375,12.78125 C 41.52272,13.248682 41.413401,13.475688 41.21875,13.6875 C 40.93321,13.998232 40.430479,14.847999 40.09375,15.5625 C 39.81415,16.15575 39.06228,16.90555 38.40625,17.25 C 38.12056,17.399996 37.792031,17.593541 37.6875,17.6875 C 37.58297,17.781458 37.290313,17.947943 37.03125,18.0625 C 36.772185,18.177058 36.325442,18.419214 36.0625,18.59375 C 35.235743,19.142548 34.521492,19.285093 32.625,19.28125 C 30.633595,19.277216 29.605942,19.123866 28.71875,18.71875 C 28.168276,18.467391 27.893186,18.259467 27.03125,17.375 C 25.859957,16.173096 25.210035,15.342232 24.53125,14.1875 C 22.408597,10.576488 20.767982,9.251014 16.625,7.71875 C 16.012362,7.492166 15.110577,7.3890288 13.40625,7.34375 C 11.794704,7.300937 11.781397,7.2839672 10.46875,7.625 C 8.5755626,8.116859 7.5108031,8.7098801 5.84375,10.09375 C 5.328182,10.521745 4.9579588,10.933009 4.40625,11.75 C 3.476621,13.126663 3.411328,13.256544 3.28125,14.0625 C 3.123457,15.04014 2.9634919,16.921623 3.03125,17.03125 C 3.063646,17.083661 3.108626,17.439248 3.125,17.8125 C 3.141373,18.185751 3.2413341,19.001694 3.34375,19.625 C 3.619865,21.305461 3.8293312,21.677588 5.25,22.875 C 6.077758,23.572679 6.5196719,23.876043 6.84375,23.96875 C 7.086883,24.038295 7.6575261,24.239618 8.125,24.40625 C 9.1848628,24.784032 9.9862603,24.855038 11.375,24.75 C 12.644015,24.654019 12.982653,24.565556 13.9375,24.0625 C 15.268835,23.361084 16.008783,22.810816 16.40625,22.1875 C 16.842173,21.503879 17.208442,20.405161 17.375,19.3125 C 17.521556,18.351031 17.442281,17.971992 16.78125,16.6875 C 16.227486,15.611438 15.902967,15.280619 14.78125,14.71875 C 13.817079,14.235788 13.645944,14.232713 12.53125,14.34375 C 11.673917,14.429151 11.021855,14.661826 10.375,15.15625 C 9.8011954,15.594828 9.5084421,16.006524 9.21875,16.8125 C 9.0162452,17.375938 8.9870509,18.125001 9.15625,18.125 C 9.198894,18.125 9.3572396,17.743832 9.53125,17.28125 C 9.705248,16.818669 9.9328395,16.322253 10.03125,16.1875 C 10.129673,16.052748 10.578108,15.759086 11.03125,15.53125 C 11.962089,15.06323 12.855067,14.909179 13.53125,15.125 C 13.919366,15.248878 15.24643,16.068818 15.625,16.40625 C 16.233802,16.948889 16.590941,17.866936 16.59375,18.875 C 16.598289,20.501337 16.035662,21.685886 14.96875,22.3125 C 14.735019,22.44978 14.349537,22.675812 14.09375,22.84375 C 13.437127,23.274851 12.808663,23.382774 11.34375,23.3125 C 10.281494,23.261543 9.985408,23.235806 9.25,22.96875 C 7.6745042,22.396628 6.2512769,21.205702 5.71875,20.03125 C 5.087735,18.639585 5.0253811,18.329068 5.09375,16.90625 C 5.153925,15.654241 5.365111,14.629545 5.71875,13.96875 C 5.963912,13.510666 6.5915221,12.803979 7.65625,11.71875 C 8.071352,11.295646 8.8903779,10.919148 9.75,10.75 C 10.754071,10.552427 13.075507,10.422093 13.78125,10.53125 C 15.622314,10.816009 18.730163,12.967914 19.8125,14.71875 C 20.334882,15.563771 20.827666,16.543133 21.03125,17.125 C 21.299301,17.891152 21.39647,19.906187 21.1875,20.625 C 21.10216,20.918564 21.031822,21.331477 21.03125,21.53125 C 21.02991,22.007055 20.835631,22.600765 20.4375,23.40625 C 20.33774,23.608076 20.254387,23.868791 20.15625,24.125 z"
       style="opacity:0.797468;fill:url(#linearGradient3531);fill-opacity:1;fill-rule:nonzero;stroke:none;stroke-width:1;stroke-linecap:butt;stroke-linejoin:miter;marker:none;stroke-miterlimit:0;stroke-dasharray:none;stroke-dashoffset:0;stroke-opacity:1;visibility:visible;display:inline;overflow:visible" />
    <path
       id="path8099"
       d="M 20.15625,24.125 C 20.07951,24.325347 19.979686,24.539343 19.9375,24.6875 C 19.841365,25.025123 19.71939,25.359589 19.65625,25.4375 C 19.593097,25.515413 19.505009,25.724452 19.46875,25.90625 C 19.372784,26.387448 19.061753,27.392818 18.9375,27.625 C 18.789851,27.900868 18.492959,29.174081 18.34375,30.15625 C 18.223503,30.947802 18.200863,32.696925 18.3125,33.5625 C 18.453776,34.657837 18.845901,36.604172 18.96875,36.84375 C 20.05002,38.952416 20.561659,39.69162 21.46875,40.40625 C 21.696927,40.586006 21.981555,40.847918 22.09375,41 C 22.521949,41.580388 23.744237,42.413884 25,43 C 25.543294,43.25358 26.762049,43.568001 27.875,43.71875 C 28.342474,43.78207 28.778539,43.83743 28.875,43.84375 C 29.156031,43.862166 30.357619,43.557307 31,43.3125 C 31.325196,43.188577 31.707779,43.09375 31.84375,43.09375 C 32.124755,43.09375 33.007128,42.615964 33.46875,42.21875 C 33.639002,42.072247 33.931651,41.880572 34.125,41.78125 C 34.318336,41.681929 34.828006,41.308517 35.25,40.9375 C 36.183348,40.11693 36.425742,39.596011 36.90625,37.6875 C 37.213941,36.465433 37.23696,36.343887 37.15625,35.5625 C 37.109158,35.106686 37.034658,34.420814 37,34.03125 C 36.928068,33.222482 36.433739,32.032925 35.75,31.03125 C 35.37779,30.485964 34.397268,29.677274 33.28125,28.96875 C 32.060849,28.193955 30.100612,28.029187 28.46875,28.59375 C 27.875944,28.798841 27.637924,28.941059 27.1875,29.375 C 26.882358,29.668993 26.526055,30.110149 26.40625,30.34375 C 26.286445,30.577351 26.035303,31.032098 25.875,31.34375 C 25.596999,31.884194 25.593749,31.950361 25.59375,33.03125 C 25.59375,34.118134 25.611941,34.179683 25.90625,34.78125 C 26.314992,35.616718 27.087006,36.358056 27.96875,36.71875 C 28.850273,37.079353 30.184557,37.161229 30.75,36.90625 C 31.150302,36.72574 31.263947,36.519541 30.90625,36.625 C 30.297136,36.804588 29.631773,36.768851 28.9375,36.5625 C 27.98147,36.278349 27.642357,36.093884 27.21875,35.625 C 26.687641,35.037127 26.50323,34.52306 26.40625,33.40625 C 26.326905,32.492508 26.33626,32.3724 26.5625,31.65625 C 26.759582,31.032377 26.857737,30.80235 27.21875,30.4375 C 27.625021,30.02692 28.284463,29.578377 28.78125,29.3125 C 29.185336,29.096243 30.143587,29.017107 30.8125,29.15625 C 31.160859,29.228713 31.537862,29.278804 31.65625,29.28125 C 32.367495,29.295941 34.163356,30.577321 34.53125,31.34375 C 34.651431,31.594119 34.840062,31.997969 34.96875,32.25 C 35.145049,32.595257 35.221386,32.965429 35.28125,33.6875 C 35.437495,35.572237 35.358333,36.652394 35.03125,37.1875 C 34.967759,37.291385 34.83794,37.602385 34.75,37.875 C 34.563791,38.452198 33.933686,39.340079 33.46875,39.6875 C 32.848412,40.151041 31.68131,40.843618 31.1875,41.03125 C 30.384256,41.336454 28.989915,41.502319 28.375,41.375 C 28.091394,41.316282 27.793468,41.222002 27.6875,41.15625 C 27.581533,41.0905 27.27684,40.999789 27.03125,40.96875 C 26.330059,40.880133 25.167426,40.248307 24.84375,39.78125 C 24.694827,39.566353 24.372502,39.238475 24.125,39.03125 C 23.854646,38.804897 23.629166,38.514477 23.5625,38.3125 C 23.438326,37.936249 22.912249,36.963768 22.59375,36.53125 C 22.348132,36.197693 22.098711,35.65283 21.96875,35.125 C 21.884944,34.784617 21.834384,32.085275 21.875,30.5625 C 21.891491,29.944225 22.129756,29.219361 22.4375,28.875 C 22.530345,28.771116 22.691173,28.514989 22.8125,28.28125 C 23.581488,26.799796 24.583718,25.515496 25.4375,24.90625 C 25.942351,24.545991 26.219016,24.410954 27.09375,24.1875 C 29.538986,23.562859 29.776209,23.531249 31.90625,23.53125 C 34.083968,23.53125 35.430419,23.337917 36.3125,22.875 C 36.601113,22.72354 37.178209,22.450429 37.59375,22.25 C 38.7285,21.702663 39.643059,21.071054 40.40625,20.3125 C 40.752407,19.968443 41.193475,19.535667 41.46875,19.28125 L 20.15625,24.125 z"
       style="opacity:0.36286902;fill:url(#linearGradient3533);fill-opacity:1;fill-rule:nonzero;stroke:none;stroke-width:1;stroke-linecap:butt;stroke-linejoin:miter;marker:none;stroke-miterlimit:0;stroke-dasharray:none;stroke-dashoffset:0;stroke-opacity:1;visibility:visible;display:inline;overflow:visible" />
  </g>
</svg>
